/* XPM */
static char *mc_wood[] = {
"32 32 16 1",
"  c #A48B5B",
". c #9A8354",
"+ c #AD9262",
"@ c #B39666",
"# c #77623D",
"$ c #94794C",
"% c #846C44",
"& c #AA905E",
"* c #897047",
"= c #796542",
"- c #6B5936",
"; c #715D39",
": c #BCA06E",
"> c #AA8E60",
", c #957E51",
"< c #B59C71",
"<+@@@@:@@@:::@+.<+@@@@:@@@:::@+.",
"@@+&. &@@@&+@@ .@@+&. &@@@&+@@ .",
"++++   ....  > $++++   ....  > $",
".**$$*##%%#%##%#.**$$*##%%#%##%#",
"++.+@@ . ++  .. ++.+@@ . ++  .. ",
"+@++ & $ &+@@++&+@++ & $ &+@@++&",
"..    .$     .....    .$     ...",
"=#%*$%###=%**$%#=#%*$%###=%**$%#",
"++@>  &+++@+@@ ,++@>  &+++@+@@ ,",
"@+@@++&   &   .$@+@@++&   &   .$",
"@   .....   .. ,@   .....   .. ,",
"=#%$$%#;#*$%%###=#%$$%#;#*$%%###",
"+. @@  . @@.+ +++. @@  . @@.+ ++",
"+ +@   . @@ +&&&+ +@   . @@ +&&&",
" ..   .$ > ..... ..   .$ > .....",
"=#=;;%$$$%;#----=#=;;%$$$%;#----",
"<+@@@@:@@@:::@+.<+@@@@:@@@:::@+.",
"@@+&. &@@@&+@@ .@@+&. &@@@&+@@ .",
"++++   ....  > $++++   ....  > $",
".**$$*##%%#%##%#.**$$*##%%#%##%#",
"++.+@@ . ++  .. ++.+@@ . ++  .. ",
"+@++ & $ &+@@++&+@++ & $ &+@@++&",
"..    .$     .....    .$     ...",
"=#%*$%###=%**$%#=#%*$%###=%**$%#",
"++@>  &+++@+@@ ,++@>  &+++@+@@ ,",
"@+@@++&   &   .$@+@@++&   &   .$",
"@   .....   .. ,@   .....   .. ,",
"=#%$$%#;#*$%%###=#%$$%#;#*$%%###",
"+. @@  . @@.+ +++. @@  . @@.+ ++",
"+ +@   . @@ +&&&+ +@   . @@ +&&&",
" ..   .$ > ..... ..   .$ > .....",
"=#=;;%$$$%;#----=#=;;%$$$%;#----"
};
