/* XPM */
static char *mc_dirt[] = {
"32 32 16 1",
"  c #785C42",
". c #87674A",
"+ c #6D543B",
"@ c #997555",
"# c #654B35",
"$ c #78A54F",
"% c #8CAE5F",
"& c #77624B",
"* c #729A49",
"= c #86B35C",
"- c #947861",
"; c #5B4A31",
": c #6E8845",
"> c #636339",
", c #5E5436",
"< c #66873E",
"===$$$$$==$$$$*$===$$$$$==$$$$*$",
"=$%%%>**$%%%*$$*=$%%%>**$%%%*$$*",
"%&%**,:>$=%%><:+%&%**,:>$=%%><:+",
" &++:+;;:>:++#;+ &++:+;;:>:++#;+",
". .@+&++;;,   # . .@+&++;;,   # ",
" #.. .###++++  @ #.. .###++++  @",
"@  .-& @@ @@ . .@  .-& @@ @@ . .",
". @-@.  .+..  ... @-@.  .+..  ..",
".  . .+#+..   # .  . .+#+..   # ",
" .#  ##++   @@&. .#  ##++   @@&.",
" . @-.@.+@@+.@-  . @-.@.+@@+.@- ",
".  .@@..&..+#.&#.  .@@..&..+#.&#",
" #. ..@. + ++.-- #. ..@. + ++.--",
" .    .. +.+ @@@ .    .. +.+ @@@",
". +@ # +@@.. .... +@ # +@@.. ...",
"@&@@. - .@  .. #@&@@. - .@  .. #",
"===$$$$$==$$$$*$===$$$$$==$$$$*$",
"=$%%%>**$%%%*$$*=$%%%>**$%%%*$$*",
"%&%**,:>$=%%><:+%&%**,:>$=%%><:+",
" &++:+;;:>:++#;+ &++:+;;:>:++#;+",
". .@+&++;;,   # . .@+&++;;,   # ",
" #.. .###++++  @ #.. .###++++  @",
"@  .-& @@ @@ . .@  .-& @@ @@ . .",
". @-@.  .+..  ... @-@.  .+..  ..",
".  . .+#+..   # .  . .+#+..   # ",
" .#  ##++   @@&. .#  ##++   @@&.",
" . @-.@.+@@+.@-  . @-.@.+@@+.@- ",
".  .@@..&..+#.&#.  .@@..&..+#.&#",
" #. ..@. + ++.-- #. ..@. + ++.--",
" .    .. +.+ @@@ .    .. +.+ @@@",
". +@ # +@@.. .... +@ # +@@.. ...",
"@&@@. - .@  .. #@&@@. - .@  .. #"
};
