/* XPM */
static char *mc_diamond[] = {
"32 32 24 1",
"  c #848686",
". c #797B7B",
"+ c #7B8483",
"@ c #8AA4A6",
"# c #879596",
"$ c #949595",
"% c #A6D2CB",
"& c #6C7474",
"* c #68A6A8",
"= c #629697",
"- c #5E989A",
"; c #73C7CA",
": c #849EA1",
"> c #86BDB4",
", c #8CC5BB",
"< c #6DBDC1",
"1 c #74CACD",
"2 c #8BA7A9",
"3 c #6E6E6E",
"4 c #78BCB8",
"5 c #838F90",
"6 c #81B5AC",
"7 c #93AAAB",
"8 c #95C6BB",
"$    .. ....  $$$    .. ....  $$",
" ....    ...&&.  ....    ...&&. ",
" .3&*# .&...6=.. .3&*# .&...6=..",
"   +@ .6=#  @5..   +@ .6=#  @5..",
".  ....#:    ....  ....#:    ...",
"   ++%,++ %,+3.    ++%,++ %,+3. ",
".. %%11-#+<*+.  .. %%11-#+<*+.  ",
" ..$77@:+.#:  $$ ..$77@:+.#:  $$",
".>4@# .+%,+    ..>4@# .+%,+    .",
" @@ ...>;*-# $$  @@ ...>;*-# $$ ",
".+.+*+.#@@ .&....+.+*+.#@@ .&...",
" ...+   # +4-+ . ...+   # +4-+ .",
" . .&. +8%%;<= . . .&. +8%%;<= .",
"  @>=&. 2*;2@  .  @>=&. 2*;2@  .",
" .+@#    5@ ...  .+@#    5@ ... ",
" ..   .    +..   ..   .    +..  ",
"$    .. ....  $$$    .. ....  $$",
" ....    ...&&.  ....    ...&&. ",
" .3&*# .&...6=.. .3&*# .&...6=..",
"   +@ .6=#  @5..   +@ .6=#  @5..",
".  ....#:    ....  ....#:    ...",
"   ++%,++ %,+3.    ++%,++ %,+3. ",
".. %%11-#+<*+.  .. %%11-#+<*+.  ",
" ..$77@:+.#:  $$ ..$77@:+.#:  $$",
".>4@# .+%,+    ..>4@# .+%,+    .",
" @@ ...>;*-# $$  @@ ...>;*-# $$ ",
".+.+*+.#@@ .&....+.+*+.#@@ .&...",
" ...+   # +4-+ . ...+   # +4-+ .",
" . .&. +8%%;<= . . .&. +8%%;<= .",
"  @>=&. 2*;2@  .  @>=&. 2*;2@  .",
" .+@#    5@ ...  .+@#    5@ ... ",
" ..   .    +..   ..   .    +..  "
};
