/* XPM */
static char *mc_pumpkin[] = {
"32 32 24 1",
"  c #A3692B",
". c #C78737",
"+ c #B87B33",
"@ c #3C1406",
"# c #441B09",
"$ c #572B12",
"% c #955B23",
"& c #945E28",
"* c #9B6227",
"= c #4D220C",
"- c #CE9546",
"; c #B3762E",
": c #D4923C",
"> c #7D461C",
", c #592D12",
"< c #310B05",
"1 c #623514",
"2 c #AD702C",
"3 c #B88643",
"4 c #CA9549",
"5 c #BE8137",
"6 c #7E4B22",
"7 c #2F0906",
"8 c #CE903F",
"-5+ +5+ &+5+&&+ -5+ +5+ &+5+&&+ ",
"-:.  ..+ ..; .. -:.  ..+ ..; .. ",
".--*=, 4  1  +4 .--*=, 4  1  +4 ",
"&8-%@@$3*#<=% 4+&8-%@@$3*#<=% 4+",
" ..$@@=+%@@@#%.. ..$@@=+%@@@#%..",
" ..#@@=+%@@@#&.: ..#@@=+%@@@#&.:",
" ..$@#, %#@@#$.: ..$@#, %#@@#$.:",
" .:31$2+ &,==14- .:31$2+ &,==14-",
" .:.3+54+.-3+3-: .:.3+54+.-3+3-:",
" .+$6$*+$* $&,.: .+$6$*+$* $&,.:",
" +$7<<##<#@<##+: +$7<<##<#@<##+:",
" +$@@=#@#@@@##1. +$@@=#@#@@@##1.",
"*;;#$&$,&$==&$$ *;;#$&$,&$==&$$ ",
"*;+$2.1  +2,>;+**;+$2.1  +2,>;+*",
"&% >2;%*%; &>*2&&% >2;%*%; &>*2&",
"6%%>%;*%&%%>>%%>6%%>%;*%&%%>>%%>",
"-5+ +5+ &+5+&&+ -5+ +5+ &+5+&&+ ",
"-:.  ..+ ..; .. -:.  ..+ ..; .. ",
".--*=, 4  1  +4 .--*=, 4  1  +4 ",
"&8-%@@$3*#<=% 4+&8-%@@$3*#<=% 4+",
" ..$@@=+%@@@#%.. ..$@@=+%@@@#%..",
" ..#@@=+%@@@#&.: ..#@@=+%@@@#&.:",
" ..$@#, %#@@#$.: ..$@#, %#@@#$.:",
" .:31$2+ &,==14- .:31$2+ &,==14-",
" .:.3+54+.-3+3-: .:.3+54+.-3+3-:",
" .+$6$*+$* $&,.: .+$6$*+$* $&,.:",
" +$7<<##<#@<##+: +$7<<##<#@<##+:",
" +$@@=#@#@@@##1. +$@@=#@#@@@##1.",
"*;;#$&$,&$==&$$ *;;#$&$,&$==&$$ ",
"*;+$2.1  +2,>;+**;+$2.1  +2,>;+*",
"&% >2;%*%; &>*2&&% >2;%*%; &>*2&",
"6%%>%;*%&%%>>%%>6%%>%;*%&%%>>%%>"
};
