/* XPM */
static char *_f240513efbf40ece8560de28b15b795pNmDkwbhxzRIBjRI[] = {
/* columns rows colors chars-per-pixel */
"64 64 225 2 ",
"   c #0A0D04",
".  c #151709",
"X  c #191B15",
"o  c #0E0F13",
"O  c #2A2B1B",
"+  c #34331E",
"@  c #1D2623",
"#  c #262926",
"$  c #2C3633",
"%  c #363B36",
"&  c #2C312D",
"*  c #38413A",
"=  c #48493B",
"-  c #56573A",
";  c #383D42",
":  c #3C464A",
">  c #444A48",
",  c #4C524A",
"<  c #4B5553",
"1  c #56555A",
"2  c #555D5C",
"3  c #545655",
"4  c #4B4E53",
"5  c #615F53",
"6  c #57615A",
"7  c #5F6041",
"8  c #69674E",
"9  c #686458",
"0  c #787859",
"q  c #736C59",
"w  c #555A67",
"e  c #605D78",
"r  c #5C6666",
"t  c #5C6478",
"y  c #606161",
"u  c #6C6C6C",
"i  c #666A69",
"p  c #726E68",
"a  c #69736D",
"s  c #7A7869",
"d  c #666D74",
"f  c #6D7273",
"g  c #6D767B",
"h  c #7B7C7B",
"j  c #767878",
"k  c #857858",
"l  c #827D78",
"z  c #75827B",
"x  c #7C817D",
"c  c #8E835D",
"v  c #93895E",
"b  c #8B866C",
"n  c #928666",
"m  c #988A6E",
"M  c #9B916C",
"N  c #93916A",
"B  c #89877A",
"V  c #958A79",
"C  c #9B9778",
"Z  c #A1966B",
"A  c #A18E7C",
"S  c #A69875",
"D  c #ACA37A",
"F  c #B7AB79",
"G  c #BBB57A",
"H  c #AEA26E",
"J  c #5A6084",
"K  c #6A6E86",
"L  c #736C8A",
"P  c #6A7B8F",
"I  c #687586",
"U  c #757987",
"Y  c #6C6C90",
"T  c #777A97",
"R  c #6C7D97",
"E  c #847F96",
"W  c #7B8687",
"Q  c #7A859E",
"!  c #788698",
"~  c #7884A2",
"^  c #7F92A1",
"/  c #838685",
"(  c #898A89",
")  c #928D83",
"_  c #989888",
"`  c #868995",
"'  c #8C9293",
"]  c #8B9497",
"[  c #949593",
"{  c #959A9B",
"}  c #8A928A",
"|  c #A49384",
" . c #A89A89",
".. c #AA9D91",
"X. c #A89E9C",
"o. c #B29F89",
"O. c #9CA29C",
"+. c #ADA18B",
"@. c #A9A987",
"#. c #BEAA8C",
"$. c #B4A587",
"%. c #BCB383",
"&. c #BEB189",
"*. c #AEA094",
"=. c #A8A798",
"-. c #B2A294",
";. c #B2A59B",
":. c #B8AA9D",
">. c #B7B497",
",. c #858AA7",
"<. c #8896A5",
"1. c #9799A6",
"2. c #8B92B1",
"3. c #929BB8",
"4. c #908BA9",
"5. c #A09FA7",
"6. c #9CA2A4",
"7. c #9EA6A8",
"8. c #9DA8B4",
"9. c #A3A4A3",
"0. c #AAA7AA",
"q. c #A8ABA8",
"w. c #B4ACA6",
"e. c #AAB1A7",
"r. c #BDB3A2",
"t. c #BCB2AD",
"y. c #B5B4AC",
"u. c #ABABB2",
"i. c #A5A6B3",
"p. c #ABB5B2",
"a. c #ADB8BB",
"s. c #B4B2B4",
"d. c #BAB4B4",
"f. c #B4B5BB",
"g. c #B3BCBA",
"h. c #BBBBBC",
"j. c #B7B9B6",
"k. c #B1ACB3",
"l. c #C4B78B",
"z. c #C4AF98",
"x. c #C4B19B",
"c. c #C7B896",
"v. c #CAB492",
"b. c #C6B7A5",
"n. c #D1BEA8",
"m. c #C1BDBC",
"M. c #C3BBB3",
"N. c #B9C3B5",
"B. c #CDC599",
"V. c #D7CA9B",
"C. c #CDC791",
"Z. c #CCC2AE",
"A. c #C6C6AB",
"S. c #D3C7A7",
"D. c #D8D5A5",
"F. c #CDC1B5",
"G. c #C6C6B8",
"H. c #D4CAB7",
"J. c #D6D4BA",
"K. c #CFD1AA",
"L. c #E5DDAE",
"P. c #E5E2A9",
"I. c #E5E5B7",
"U. c #B8BBC3",
"Y. c #A6ADC8",
"T. c #C1BDC3",
"R. c #BCC2C2",
"E. c #B8C1D2",
"W. c #C4C5C5",
"Q. c #C2C4CB",
"!. c #CBCACA",
"~. c #C7C9C8",
"^. c #D1CCC8",
"/. c #CCD3C7",
"(. c #D6D4C9",
"). c #C8CBD3",
"_. c #D2CED4",
"`. c #CCD2D7",
"'. c #D4D4D3",
"]. c #D3D5DA",
"[. c #DBDCDD",
"{. c #D6DAD8",
"}. c #E2D9CC",
"|. c #E7DED5",
" X c #DDE2C7",
".X c #DCE2D7",
"XX c #E5E7C5",
"oX c #E7E6D5",
"OX c #F2E9DC",
"+X c #F2F3D9",
"@X c #EEF3DF",
"#X c #DADDE5",
"$X c #C9D0E7",
"%X c #DEE2E6",
"&X c #DFE7FD",
"*X c #E2E4E4",
"=X c #ECECEC",
"-X c #E7E8E8",
";X c #F4ECE5",
":X c #F1EDEC",
">X c #F3F5E6",
",X c #FCFCE5",
"<X c #F3F3EC",
"1X c #FBF4EC",
"2X c #FDFEED",
"3X c #F9F8E6",
"4X c #EEEEF2",
"5X c #EAECF6",
"6X c #F1EEF3",
"7X c #EEF3F3",
"8X c #F4F4F4",
"9X c #F9F6F4",
"0X c #F5F9F5",
"qX c #FDFDF5",
"wX c #F4F6FB",
"eX c #FAF5FC",
"rX c #F6FAFB",
"tX c #FFFDFF",
"yX c #FDFFFF",
"uX c #FFFEFF",
"iX c #FEFFFF",
"pX c white",
"aX c #FEFEFE",
"sX c #FDFDFD",
"dX c #FEFEFE",
/* pixels */
"pXpXpXpXpXpXpXpXpXpXpXpXpXpXpXpXpXpXpXpXpXpXpXpXpXpXpXpXpXpXpXpXpXpXpXpXpXpXpXpXpXpXpXpXpXpXpXpXpXpXpXpXpXpXpXpXpXpXpXpXpXpXpXpX",
"pXpXpXpXpXpXpXpXpXpXpXpXpXpXpXpXpXpXpXpXpXpXpXpXpXpXpXpXpXpXpXpXpXpXpXpXpXpXpXpXpXpXpXpXpXpXpXpXpXpXpXpXpXpXpXpXpXpXpXpXpXpXpXpX",
"pXpXpXpXpXpXpXpXpXpXpXpXpXpXpXpXpXpXpXpXpXpXpXpXpXpXpXpXpXpXpXpXpXpXpXpXpXpXpXpXpXpXpXpXpXpXpXpXpXpXpXpXpXpXpXpXpXpXpXpXpXpXpXpX",
"pXpXpXpXpXpXpXpXpXpXpXpXpXpXpXpXpXpXpXpXpXpXpXpXpXpXpXpXpXpXpXpXpXpXpXpXpXpXpXpXpXpXpXpXpXpXpXpXpXpXpXpXpXpXpXpXpXpXpXpXpXpXpXpX",
"pXpXpXpXpXpXpXpXpXpXpXpXpXpXpXpXpXpXpXpXpXpXpXpXpXpXpXpXpXpXpXpXpXpXpXpXpXpXpXpXpXpXpXpXpXpXpXpXpXpXpXpXpXpXpXpXpXpXpXpXpXpXpXpX",
"pXpXpXpXpXpXpXpXpXpXpXpXpXpXpXpXpXpXpXpXpXpXpXpXpXpXpXpXpXpXpXpXpXpXpXpXpXpXpXpXpXpXpXpXpXpXpXpXpXpXpXpXpXpXpXpXpXpXpXpXpXpXpXpX",
"pXpXpXpXpXpXpXpXpXpXpXpXpXpXpXpXpXpXpXpXpXpXpXpXpXpXpXpXpXpXpXpXpXpXpXpXpXpXpXpXpXpXpXpXpXpXpXpXpXpXpXpXpXpXpXpXpXpXpXpXpXpXpXpX",
"pXpXpXpXpXpXpXpXpXpXpXpXpXpXpXpXpXpXpXpXpXpXpXpXpXpXpXpXpXpXpXpXpXpXpXpXpXpXpXpXpXpXpXpXpXpXpXpXpXpXpXpXpXpXpXpXpXpXpXpXpXpXpXpX",
"pXpXpXpXpXpXpXpXpXpXpXpXpXpXpXpXpXpXpXpXsXpXpXpXpXpXpXpXsXpXpXsXpXpXpXpXpXpXpXpXpXpXpXpXpXpXpXpXpXpXpXpXpXpXpXpXpXpXpXpXpXpXpXpX",
"pXpXpXpXpXpXpXpXpXpXpXpXpXpXpXpXpXpXpXpXpXpXpXpXpXpXpXpXsXpXpXpXpXpXpXpXpXpXpXpXpXpXpXpXpXpXpXpXpXpXpXpXpXpXpXpXpXpXpXpXpXpXpXpX",
"pXpXpXpXpXpXpXpXpXpXpXpXpXpXpXpXpXpXsXpXpXpXpXpXpXpXpXpXpXpXpXpXpXpXpXpXpXpXpXpXpXpXpXpXpXpXpXpXpXpXpXpXpXpXpXpXpXpXpXpXpXpXpXpX",
"pXpXpXpXpXpXpXpXpXpXpXpXpXpXpXpXpXpXpXpXpXpXpXpXpXpXpXpXpXpXsXpXpXpXpXpXpXpXpXpXpXpXpXpXpXpXpXpXpXpXpXpXpXpXpXpXpXpXpXpXpXpXpXpX",
"pXpXpXpXpXpXpXpXpXpXpXpXpXpXpXpXpXpXpXpXpXpXpXpXsXpXsXsXpXpXsXpXpXpXpXpXpXpXpXpXpXpXpXpXpXpXpXpXpXpXpXpXpXpXpXpXpXpXpXpXpXpXpXpX",
"pXpXpXpXpXpXpXpXpXpXpXpXpXpXpXpXsXpXpXpXpXpXpXsX-XpXpX8XpXpXsXpXpXpXpXpXpXpXpXpXpXpXpXpXpXpXpXpXpXpXpXpXpXpXpXpXpXpXpXpXpXpXpXpX",
"pXpXpXpXpXpXpXpXpXpXpXpXpXpXpXpXsXpXpXsXpXpXsX*XW.sXpXsXpXpXsXpXpXpXpXpXpXpXpXpXpXpXpXpXpXpXpXpXpXpXpXpXpXpXpXpXpXpXpXpXpXpXpXpX",
"pXpXpXpXpXpXpXpXpXpXpXpXpXpXpXpXpXpXpXsXpXsX<X!.q.8XsXsXpXpXrXpXpXpXpXpXpXpXpXpXpXpXpXpXpXpXpXpXpXpXpXpXpXpXpXpXpXpXpXpXpXpXpXpX",
"pXpXpXpXpXpXpXpXpXpXpXpXpXpXpXpXpXwXpXpXsXqX>X_ e..XqXsXrXpXpXsXsXsXpXsXpXrXpXpX8XpXsXpXpXeX5XpXpXpXpXpXpXpXpXpXpXsXsXpXpXpXpXpX",
"pXpXpXpXpXpXpXpXpXpXpXpXpXpXpXpXpXsXpX<X>X>X X=.=.N.oXqXsX8X8XpXpX0XrXpXpXpXpX8XpXrXrXwXrXpXpXeXpXpXpXpXpXpXpXpXpXpXpX8XpXpX8XpX",
"pXpXpXpXpXpXpXpXpXpXpXpXpXpXpXpXpXpXpXsXqX2XA.C @.@.A.,XqXqXqXpXpXrXpXpXwXsXpXpXsX~.-XsXqXsXsX0XpXpXpXpXpXpXpXpXpXpXpXpX8XpXpXpX",
"pXpXpXpXpXpXpXpXpXpXpXpXpXpXpXpXeXsXpX9X1X,X@.C @.@.>.K.+X2X2X<XrXrXpXpX6XpXpX8Xy.9.=XsXqXqXqXsXpXpXpXpXpXpXpXpXpXpXsXpXpXpXpXpX",
"pXpXpXpXpXpXpXpXpXpXpXpXpXpXpXpXpXpXpXsXqXOXs q @.@.@.>.K.+X,X,XsXrXrXsXpXpX<Xs.f G.sX9X1XsXqXsXpXpXpXpXpXpXpXpXpXpX*XpXpX[.=XpX",
"pXpXpXpXpXpXpXpXpXpXpXpXpXpXpXpXeXsXpXqX1XG.8 - - 7 8 0 b _ A.oX;X9XqXsXsXqXj.h ( =XpX<XpXsXsXsXpXpXpXpXpXpXpXpXpX8XpXpXs.9.pX9X",
"pXpXpXpXpXpXpXpXpXpXpXpXsXsXsXsXpXsX{.[ 9 X   X     . O O O = p ) =.A.oX2X/.} j u.pXrXpXpXeXsXpXpXpXpXpXpXpXpXpXpX=XpX'.u u.pXsX",
"pXpXpXpXpXpXpXpXpXpXpXsXsXsXsXrX{ r #   & # % * > % & # # X o o O + = _ {.j.x / q.pXpXrXpXeXpXrXpXpXpXpXpXpXpXpXsXpX*Xy ( pXsXpX",
"pXsXpXpXpXpXsXpXrXpXpXrXrX{.x $ @ $ > < < < w i g d r w w t K U u 5 = % , f ' 6.f.pX-XpXpXpXpXpXpXsXqXpXpXsX8XpXpX8Xh y W.sXpXsX",
"sXpXpXsXsXpXpX8XsXrX7X*X[ $ & i z 6 : > 2 d g g U ! K d ,.Y.3.w w 1 > > ; ; ; ; W sXsXrXsX>X>X9X8X8XpXsXpXpXpXpXpXs.3 ( =XpXpXpX",
"sXpX9X8XpXpX8XpXpX7X{ 2 3 a 6.e.e.z r a g W ` <.<.8.3.Q T 2.3.2.T L L U K w 4 : ; r q.0X2X@X,X2XsXpXpX8X8XpX8XpX[.u > W.pXpX8XpX",
"sXpXpXpXpXpXpX8XR.j % r ' f ] g.N.} z W W ` 8.U.E.$X&X&X$XY.~ Y ,.T T ,.,.Q ! Q d r * 6 /.,X,X,X9XsX8XpXpXpXpXsX9.3 f 8XsXpXsXpX",
"pX8XpXpX-XpXpX} $ > 2 i { ' p.e.j._ O.~.~.Q.`.`.#X%X#X#X#X5X#X).i.` K Y T R Q <.<.I W r , p (.>XqXpX=X8XpX8XpX[.j 3 q.pX<XpXpXsX",
"pXpX8XpXpX[.9.2 x a z W p.7.p.N.G.e.G./.[ i y 1 ; 1 / j.'..XoX-X[.U.1.! ! P P P P I I I U w d 9.{.pXpXpXpXpX=X[ u 1 ~.pXqXpXpXsX",
"pXpX=XpX8X{ h h 6 > W O.`.g.g..XG.e.t.w.p 3 p l 9 p _ (.,X+XXXXX@X.X/.g.8.<.^ Q R ~ ^ ~ J Y Y e j 9.'.8XpXpXh.i f i -XsXpXpXpXpX",
"9XpXpX8X/ f h.' r : { a.7X`.g.{./.j.!.'.=.B ) s =.J.oXXXI.I.I.I.XXoXoX X/.~.R.a.a.8.,.1.4.4.L E j 3 h ( u.W.( ( u h pX8XpXpXsXpX",
"pXrXpX8Xu.j ' Q.1.{ ( ].pX].W.-X).R.).h.W.h s B J. XXXI.P.P.P.P.D.S.@.N C @.@.@.D x.>.r. .:.;.X._ B h h u f ` ] 1.' rXpXpXsX8XsX",
"sXsXsXsXsX`.` ` Q.`.).7XpX_.~.#X).U.).R.R.j } G.A.K.D.B.C.G G H C.B.c.l.V.V.C.G l.F Z &.l.z.$.+.) ( O.O.q.7./ 1.] 6.sXpXpXsXqXqX",
"rXsXpX*XQ.U.1.1 i u.-XeX].f.~.[.R.a.R.R.'.=.y.J.XXXXI.I.P.P.P.D.V.c.D M D %.%.F D Z Z $. .A m _ =.q./.'.=X%X{ 7.U u.pXsXpXsXqXqX",
"sX0XpX*X1.f.#XU.' 5.f.U.s.T.'.W.f.h.W.h.^.G.H.Z.J.S.c.%.F G F H c Z D &.B.l.S v k c M m m +.r.J.;X<XsXrXpXwXi.U i f.pXrXpXqXqXqX",
"pXpXsX8X{.f.u.f.Q.u.u.k.s.!.^.s.y.m.^.M.M.M.(.J.S.c.l.&.c.V.V.V.L.S.S k k c M D D M C C r.oX3XqXqXsXsXpXpXrX].d r f.pXrXpXsXsXqX",
"8X8XpXpXpXpX6X].f.0.T.T.d.m.m.d.d.w.d.F.F.M.H.H.S.S.c.l.l.l.F S M S m n n n n M $.C b.J.3XqX1XsX1XqX<XpXrXsXsXW d u.pXpXpXsXsXqX",
"pXpXpXpX=XpXpX*XsX[._.d.k.h.d.d.t. ...b.F.Z.Z.x.b.c.c.v.c.c.v.#.#.$.m k k k b C 8 b oX3XqXqX1XsXsXsXsXpXrXsXwX7.g ' sXpXsXsXqXsX",
"pXpX6XsXpXrX6XpXsXeXeX_.k.0.X.t.;.....o.| x.Z.b.S.b.z.#.#.l.#.o.A |  .+.+.V s q 8 =.qX1XqXpXsXpXqXqXpXrXpXsXwX[.f h 7XsXsXpXqXsX",
"pXpXpXpXpXpXpXpXpXpXsXsXsX-X!.t.;...-.;.-. . .-.x.x.z.x.x.x.n.n.b.r.|  .J.}. .9 s G.<XsXpXpXpXpXpXpXpXpXpXpXsXsX' f ].8XsXpXsXsX",
"pXpXpXpXpXpXpXpXpXsXsXsXpXsX9X;X}.(.b.r.*.*.b.| -.o.| A A A | | V V b.OX1XqX|.) i m.sXpX8XpXpXpXpXpXpXpXpXpXsXsXR.f h.0XpX8XpXpX",
"sXsXpXpXpXpXpXpXpXpXsXeXsXpXpXsXqXqXOXoXw.V F.M.r.:.;.....-.:.r.}.;X1X9XsXsX9XoXl y.pXpX=XpXpXpXpXpXpXpXpXpXsXsX=X/ [ sXpXsXpXpX",
"sXsXpXpXpXpXpXpXpXpXpXsXsXsXsXsXqXqXqXqX^.l w.qX1X1X;X;X1X1XqXqX1XsXsX9XsXsX8XpXW.0.-XpXpXpXwXpXpXpXpXpXpXpXsXsXsXp.j 7XpXpX8XpX",
"sXsXpXpXpXpXpXpXrXpXpXpXpXpXsXsXsX8XqXsX8Xq.[ sXsXsXsXsXsXqXsXsX9X:XpXpX8XsXpX8XpXh.[.pXpXpX8XpXpXpXpXpXpXsXsXrXsX%X( R.sXpXsXsX",
"sXsXpXpXpXpXpXpXpXpXpXpXpXpXsXsXpXrXpX8XpX%Xq.sXpXpXpXpXpXpXpXpXpXpXpXpXrXpXpXsXpX*X4XrXpXpXsXpXpXpXpXpXpXsXsXsXsXrXR.6.sXsXpXpX",
"rXrXsXsXsXsXpXpXpXpXpXpXrXsXqXsXsXpXpXsXpXrX#XrXwXrXrXsXsXsXpXpX4XpXrXrXpXpX4XpXpXpXpXsXsXpXpXpXpXpXpXpXpXsXsXsXsXsX=XW.8X8XpXpX",
"sXsXpXpXpXpXpXpXpXpXpXpXpXpXsXsXpXrXrXpXsXpXpXrXpXpXpXsXpXpXpXpXpXrXpXpXrXrXpXpXsXpXsXpXpXsXpXpXpXpXpXpXpXsXpXpXsXpXsXpX-XpXpXsX",
"pXpXpXpXpXpXpXpXpXpXpXpXpXpXpXpXpXpXpXpXpXpXpXpXpXpXpXpXpXpXpXpXpXpXpXpXpXpXpXpXpXpXpXpXpXpXpXpXpXpXpXpXpXpXpXpXpXpXpXpXpXpXpXpX",
"pXpXpXpXpXpXpXpXpXpXpXpXpXpXpXpXpXpXpXpXpXpXpXpXpXpXpXpXpXpXpXpXpXpXpXpXpXpXpXpXpXpXpXpXpXpXpXpXpXpXpXpXpXpXpXpXpXpXpXpXpXpXpXpX",
"pXpXpXpXpXpXpXpXpXpXpXpXpXpXpXpXpXpXpXpXpXpXpXpXpXpXpXpXpXpXpXpXpXpXpXpXpXpXpXpXpXpXpXpXpXpXpXpXpXpXpXpXpXpXpXpXpXpXpXpXpXpXpXpX",
"pXpXpXpXpXpXpXpXpXpXpXpXpXpXpXpXpXpXpXpXpXpXpXpXpXpXpXpXpXpXpXpXpXpXpXpXpXpXpXpXpXpXpXpXpXpXpXpXpXpXpXpXpXpXpXpXpXpXpXpXpXpXpXpX",
"pXpXpXpXpXpXpXpXpXpXpXpXpXpXpXpXpXpXpXpXpXpXpXpXpXpXpXpXpXpXpXpXpXpXpXpXpXpXpXpXpXpXpXpXpXpXpXpXpXpXpXpXpXpXpXpXpXpXpXpXpXpXpXpX",
"pXpXpXpXpXpXpXpXpXpXpXpXpXpXpXpXpXpXpXpXpXpXpXpXpXpXpXpXpXpXpXpXpXpXpXpXpXpXpXpXpXpXpXpXpXpXpXpXpXpXpXpXpXpXpXpXpXpXpXpXpXpXpXpX",
"pXpXpXpXpXpXpXpXpXpXpXpXpXpXpXpXpXpXpXpXpXpXpXpXpXpXpXpXpXpXpXpXpXpXpXpXpXpXpXpXpXpXpXpXpXpXpXpXpXpXpXpXpXpXpXpXpXpXpXpXpXpXpXpX",
"pXpXpXpXpXpXpXpXpXpXpXpXpXpXpXpXpXpXpXpXpXpXpXpXpXpXpXpXpXpXpXpXpXpXpXpXpXpXpXpXpXpXpXpXpXpXpXpXpXpXpXpXpXpXpXpXpXpXpXpXpXpXpXpX",
"pXpXpXpXpXpXpXpXpXpXpXpXpXpXpXpXpXpXpXpXpXpXpXpXpXpXpXpXpXpXpXpXpXpXpXpXpXpXpXpXpXpXpXpXpXpXpXpXpXpXpXpXpXpXpXpXpXpXpXpXpXpXpXpX",
"pXpXpXpXpXpXpXpXpXpXpXpXpXpXpXpXpXpXpXpXpXpXpXpXpXpXpXpXpXpXpXpXpXpXpXpXpXpXpXpXpXpXpXpXpXpXpXpXpXpXpXpXpXpXpXpXpXpXpXpXpXpXpXpX",
"pXpXpXpXpXpXpXpXpXpXpXpXpXpXpXpXpXpXpXpXpXpXpXpXpXpXpXpXpXpXpXpXpXpXpXpXpXpXpXpXpXpXpXpXpXpXpXpXpXpXpXpXpXpXpXpXpXpXpXpXpXpXpXpX",
"pXpXpXpXpXpXpXpXpXpXpXpXpXpXpXpXpXpXpXpXpXpXpXpXpXpXpXpXpXpXpXpXpXpXpXpXpXpXpXpXpXpXpXpXpXpXpXpXpXpXpXpXpXpXpXpXpXpXpXpXpXpXpXpX",
"pXpXpXpXpXpXpXpXpXpXpXpXpXpXpXpXpXpXpXpXpXpXpXpXpXpXpXpXpXpXpXpXpXpXpXpXpXpXpXpXpXpXpXpXpXpXpXpXpXpXpXpXpXpXpXpXpXpXpXpXpXpXpXpX",
"pXpXpXpXpXpXpXpXpXpXpXpXpXpXpXpXpXpXpXpXpXpXpXpXpXpXpXpXpXpXpXpXpXpXpXpXpXpXpXpXpXpXpXpXpXpXpXpXpXpXpXpXpXpXpXpXpXpXpXpXpXpXpXpX",
"pXpXpXpXpXpXpXpXpXpXpXpXpXpXpXpXpXpXpXpXpXpXpXpXpXpXpXpXpXpXpXpXpXpXpXpXpXpXpXpXpXpXpXpXpXpXpXpXpXpXpXpXpXpXpXpXpXpXpXpXpXpXpXpX",
"pXpXpXpXpXpXpXpXpXpXpXpXpXpXpXpXpXpXpXpXpXpXpXpXpXpXpXpXpXpXpXpXpXpXpXpXpXpXpXpXpXpXpXpXpXpXpXpXpXpXpXpXpXpXpXpXpXpXpXpXpXpXpXpX"
};
