/* XPM */
static char *_2a0390b4d2c4090f57040a22a606fadh1FVQNjoQxO1EGbK[] = {
/* columns rows colors chars-per-pixel */
"64 64 251 2 ",
"   c #040100",
".  c #0A0400",
"X  c #0D0902",
"o  c #120B02",
"O  c #170C02",
"+  c #1B1308",
"@  c #1D1913",
"#  c #251907",
"$  c #231C15",
"%  c #2C2414",
"&  c #2D251D",
"*  c #2D2815",
"=  c #362916",
"-  c #3F321C",
";  c #32230E",
":  c #352C24",
">  c #3C3329",
",  c #322D28",
"<  c #433216",
"1  c #443728",
"2  c #553D29",
"3  c #433D35",
"4  c #54442C",
"5  c #4C443A",
"6  c #494336",
"7  c #5C4B3B",
"8  c #564836",
"9  c #5B523A",
"0  c #4D412B",
"q  c #634C3C",
"w  c #67573B",
"e  c #725C3A",
"r  c #6A522E",
"t  c #4D4943",
"y  c #554C43",
"u  c #584E43",
"i  c #5C5448",
"p  c #5F5A54",
"a  c #635443",
"s  c #635A42",
"d  c #6B5A44",
"f  c #655B4B",
"g  c #6B5D4B",
"h  c #695543",
"j  c #735C49",
"k  c #665D53",
"l  c #6B624C",
"z  c #696248",
"x  c #74624D",
"c  c #7A654C",
"v  c #7C6A4C",
"b  c #766545",
"n  c #6B6354",
"m  c #6D6856",
"M  c #746553",
"N  c #7B6653",
"B  c #756B55",
"V  c #7C6B54",
"C  c #746B5A",
"Z  c #7B6C5B",
"A  c #76675A",
"S  c #7D735A",
"D  c #7B7256",
"F  c #7E7464",
"G  c #7C7669",
"H  c #746C63",
"J  c #826C4A",
"K  c #88734E",
"L  c #836C54",
"P  c #836E5B",
"I  c #886F59",
"U  c #857353",
"Y  c #8B7554",
"T  c #8D7955",
"R  c #84735B",
"E  c #89735C",
"W  c #8C7A5B",
"Q  c #837A5C",
"!  c #937A55",
"~  c #947E5B",
"^  c #947A57",
"/  c #837363",
"(  c #8A7564",
")  c #847B64",
"_  c #8C7B64",
"`  c #847B6C",
"'  c #8B7C6B",
"]  c #827668",
"[  c #947E64",
"{  c #927D6C",
"}  c #967966",
"|  c #847C72",
" . c #8B7E71",
".. c #8D7769",
"X. c #96825D",
"o. c #9B835C",
"O. c #8C826C",
"+. c #898367",
"@. c #948264",
"#. c #9B8563",
"$. c #9D8964",
"%. c #93836C",
"&. c #9A846B",
"*. c #948A6B",
"=. c #9D8A6B",
"-. c #928966",
";. c #9C916D",
":. c #8C8372",
">. c #8B8677",
",. c #938473",
"<. c #9A8573",
"1. c #948B75",
"2. c #9C8C73",
"3. c #948A7B",
"4. c #9B8C7B",
"5. c #958579",
"6. c #9C937D",
"7. c #999276",
"8. c #A18A65",
"9. c #A28C6C",
"0. c #A18764",
"q. c #A6916B",
"w. c #A7916B",
"e. c #A28D73",
"r. c #A38D7B",
"t. c #A48774",
"y. c #A39273",
"u. c #A3947B",
"i. c #AA937C",
"p. c #A4997D",
"a. c #AA9A7D",
"s. c #AA9774",
"d. c #B29B7C",
"f. c #AFA17E",
"g. c #958C82",
"h. c #9A8D82",
"j. c #958F8C",
"k. c #9D9383",
"l. c #9D968C",
"z. c #9A9886",
"x. c #9D9893",
"c. c #8D8782",
"v. c #A49483",
"b. c #AA9683",
"n. c #A59A84",
"m. c #AB9B84",
"M. c #A49B8B",
"N. c #AB9D8B",
"B. c #A4968C",
"V. c #B39C8A",
"C. c #A49C93",
"Z. c #AB9D92",
"A. c #A69D99",
"S. c #AB9789",
"D. c #ADA185",
"F. c #ADA28C",
"G. c #A6A08A",
"H. c #B2A48D",
"J. c #B6A689",
"K. c #ADA393",
"L. c #ADA59B",
"P. c #AEA99B",
"I. c #ABA692",
"U. c #B2A593",
"Y. c #B4AA95",
"T. c #BAAC94",
"R. c #B2A69A",
"E. c #B4AB9B",
"W. c #BAAD9C",
"Q. c #B9A697",
"!. c #B7B19E",
"~. c #BBB19D",
"^. c #BBB298",
"/. c #ADA7A5",
"(. c #B5ACA2",
"). c #BBAEA2",
"_. c #B3ACA8",
"`. c #BCB3A4",
"'. c #B6B1AB",
"]. c #BDB4AA",
"[. c #BBB6A7",
"{. c #BCB7B2",
"}. c #C1AD9C",
"|. c #C4B69C",
" X c #CBB694",
".X c #C2B4A4",
"XX c #C3B9A6",
"oX c #C2B6AA",
"OX c #C4BAAC",
"+X c #C9BCAD",
"@X c #CAB8A6",
"#X c #C4BDB3",
"$X c #CBBEB3",
"%X c #C5BBB8",
"&X c #C7B4A5",
"*X c #C6C0AE",
"=X c #CBC1AD",
"-X c #CFC0A2",
";X c #D4C6A9",
":X c #C5C2B5",
">X c #CBC2B4",
",X c #C5C2BB",
"<X c #CCC4BA",
"1X c #CDCABC",
"2X c #CDC9B5",
"3X c #D1C4B5",
"4X c #D2C5BB",
"5X c #D4CBBC",
"6X c #DACBBC",
"7X c #D9CAB6",
"8X c #DAD2BE",
"9X c #D9D0BA",
"0X c #E6D6BA",
"qX c #E5CEAC",
"wX c #CECBC2",
"eX c #CBC7C3",
"rX c #D4CCC2",
"tX c #DACDC3",
"yX c #D2CDC9",
"uX c #D7CCC7",
"iX c #D6D2C4",
"pX c #DBD3C5",
"aX c #D4D2CC",
"sX c #DCD4CB",
"dX c #DDD9CC",
"fX c #DFD9C7",
"gX c #DBD6D2",
"hX c #DCDAD4",
"jX c #DEDDD9",
"kX c #D6D6D1",
"lX c #E2D4C5",
"zX c #E1D5CB",
"xX c #E2DACE",
"cX c #E4D9C6",
"vX c #E3DCD3",
"bX c #E9DDD4",
"nX c #E2DED9",
"mX c #E8DFDA",
"MX c #E1CEC2",
"NX c #E5E1D5",
"BX c #E4E2DC",
"VX c #EBE3DB",
"CX c #EBE3D3",
"ZX c #F3E6D7",
"AX c #F9F0DD",
"SX c #E6E5E1",
"DX c #EBE6E1",
"FX c #ECEAE5",
"GX c #F2EBE4",
"HX c #F4EDEA",
"JX c #F9F4EB",
/* pixels */
"z.z.`.6.C n M.`.E.h. . .H i n :.) +.+.+.*.S s 9 D Q V s R u.S 8 z D ) S z +.D ) :.3.I.5X5X:X:XL.'.eX].<X#X_.4X#X$X$X).4X4XZ.).zX",
"3.G >.O.` G M.`.K.Z.M.M.M.M.l.z.>.7.) M S 1.1.O.) z S D ' <.S p.z +.D S B *.G.G.I.z.M.P.K.g.L.(.wXaXnXrX$X4X#X].4X$X$XoX$XzX$XB.",
"3.n m :.M.M.(..X3.M.R.`.+X>X].P.*XY.6.6.G.k.1.3.C f 6.6.N.W.,.W.1.B Q z s 1.O.XXk.U.M.]  .:.`.:Xl.| (.oXuXbX).$X$XB.5XbX$XR.3.h.",
"P.>.>.I.>X>XOXoX$X.X`.XX+X>XpXCX>X2X5X8X!.` F M.' C ] F h.).v.U.@XQ +.D S 1.+.=XXXcX2XO.F n ` ` l.| ` 1 k tX$X).tX).$X5X$XY.5.>.",
"rX:X].:X5X4XOXoX6XXX`.XX+X`.E.Y.E.I.k.k.Y.W.Z.k.K.5.A  .R.R.Z.R.|.^._ D.^.6.=X.XY..X.X`.XX3.N.oXk.G  .k.oXtXoX).5X>Xk.v.Y.6.3.M.",
"<XrX#XOX].OX.X$X+X.XE.W.+XXX1.f n G :.:.` :.M.$X(.oXZ.).4X$X4X).n.^.6.F.|.F.=X6.k.E..X8XpX3X6XzXzXxX5XoXoX+X&XQ.K.XX:.O.M.F G z.",
"].#X(.].].OX).6XlX@XN.F.XX=XT.6.) ` :.3.>.] ,.E.).4XoXR.`.4XtX$XU.m.^.n.F.N.6.,.Z N.K.XXW.pXlX+X6X+X).W.W.Q..X3Xk.+XN.F 3.G.:.m ",
"<X,X(.4X5X$XW.7Xk.( ( N.|.H.p.D.p.T.Y.6.:.3.k.M.R.K.oX$X5X>XR.`.8X=X~.^.^.O.n.N.,.N.N.3XK.+X.XU.K.+X6XW..XcX3XN.N.K..Xk.C z z >.",
"'.sX].].R.Z.h.<.4.N.Z 4.2.+.^.S z p.;XF.D ) 1./ g ,.!.*XW.1.F :.W.XXF.v.!.!.K..XM.F g :.).>XXX)..X`..XQ.6X3X@X.X4.,.1.O.1.6.~.z.",
"].<X(.$X`.W.Q.Q.+X&XU.V.%.R u.*.*.*.p.D.+.w 9 s 0 ) 6.) S ` :.:.K.`.XX+X3X6X3XXXK.k. ./ ` 3.K.`.`.pXW.Q.).N.W.,.( O.XX=X8X2XY.F ",
"'.R.K.>XoXW.W.}.@X4.b.<.Z V x D D.-.Q -.*.Q x S s S 6.!.*X+X5XAXCXxXvXxXpXxXtXR.$XpXxXtX#X'.(.E.+X).k.$X`.,.N.U.,.' Y.F.~.`.z.G ",
"E.B.N..XW.N.b.<.V.( v.<./ ( h w w U -.;.;.Q B ) 1.XX8XpXCXGXZXxX5X<X<X#X#X5XsXsXuXuXtXsXdXpX<X'.(.M.M.h.Z k.v.Q.v.v.U.k.n.1.O.m ",
"E.M.K.N.v.v.,.N j j ( / j N M d w D W +._ V D 6.*XcXfX2X5X5X].C.l.'.'.(.L.l.L.dXdXrXrXdXvXsXrX5X5X[.[.3.k 3.3.M.v.W.Q.n.4.l l 6 ",
"U.F.E.1.,.4.{ N ( / P N h j P h 4 Q %.x w R .XAXfX5X5XvXVX<XL.L.L.%X%X%XyX'.A.,X1XwXgXhX#Xl.c.j.1X5X:X5XE.k.h.4. .v.k.:.' s u 6 ",
"1.n.W.%.,.<.{ ( V.{ / M q 7 8 1 s q 7 x F.ZXZX+X5XVXGXVXmXsX'.j./.'.{.%XhXSXBXSXkXkXyX{.x.>.c.x.C.<XiX:X:XoXQ.,.A Z v.,.N.h.g f ",
"M ,.W.%.2.{ E { <.P r.r.P P N ( / l ' ~.6X5XfXpXxXdXvXDXmX'.x.A.,XyXyX/.j./.yXyX{._.A.j.x._.{.#XrX(.1X(.<XOXM.4X' f k.Z M..XM ` ",
"8 N b.R e.I N j N <.r.( P { ( a ` U.2X5XfXfXiX5XvXvXhXaXaXaXaXkXhXhXaX,X,X,XeX,Xx.C.C.C./.%XwXyXwX1X1X#X].'.'.[.`.F m K.v.C 1.Y.",
"&.e.i._ &.L E L h x r.b.P { b.,.F.=X8X9XiXdXdXdXVXNXBXBXBXBXBXBXhXBXnXhXhXhXhXiXnXvXsX<XoX_.A.l.'.{.:X<X#X].(.E.G.`.3.O.1.C C O.",
"i.i.} } I j E x x R ( _ ( N / b.!.5XpX5XiXdXxXNXvXhXhXBXFXFXSXjXaXhXhXhXhXhXdXaXsXgXvXgXsXyX%X'.(.].:X<X:X].E.P.Y.OXE.:.f i s 1 ",
"} t.L } N I r.E { 2.R _ H.u.,..X[.5XfXpXdXdXdXdXdXdXhXBXSXSXBXhXBXhXhXhXhXhXhXdXyXyXsXsXdXgXsXyX:X:X,X#X].(.P.P.[.P.E.N.B i 9 > ",
"} i.L E q j ( d h 4 7 Z 1.N.Y.K.5XxXNXxXvXdXiXiXNXBXBXSXSXBXBXBXBXBXhXjXhXhXhXkXhXhXkXyXyXyXyXwXiXrX<X#X(.P.L.K.E.!.K.F.K.) 9 l ",
"t.V.} &.N N L h P Z N Z ,.K.XX*XiXxXdXsXdXdXdXhXBXVXVXBXjXjXjXBXkXkXkXjXjXhXaXaXaXaXaXyXyXaXaXyXwXwX1X#X[.P.I.I.!.P.U.K.K.6.n s ",
"t.t.} t.i.V.V.}.Q..Xb.O.6.F.!.9X5XpXrX1XiXdXvXVXNXnXhXgXgXhXjXjXBXjXnXSXSXBXhXhXhXhXkXaXyXaXyXeX:X<X<X:X[.(.Y.P.XXN.!.K.4.n.) 4 ",
"t.j 2 2 j N _ }.@XU.~.~.n.!.5X*XpXsXrX1XiXsXdXNXVXmXhXhXBXSXSXBXFXBXhXnXnXhXhXBXjXjXkXyXwXyXyXwX:X<X<X:XOX`.(.!.E.W.U.k.U.T.) M ",
"V.( j q j h N ' %.,.3.n.`.5X5X*X<XrXrXwXiXNXVXhXdXnXNXVXVXVXsXeX#XaXBXBXhXnXNXnXBXhXaXhXaXwX,XwX:X<X(.].<X+XXXW.U.E.F.F.n.6.n.+.",
"t.c <.r.E d x 1 B / 6.[.2X2X2X5X<XiXdXsXdXNXVXvXGXNXdXdXvXvX<X(.P.,XdXnXnXNXnXdXnXhXaXaXwX,X:X,X:XrX#X#X>X`.E.K.K.E.U.H.v.6.n.O.",
"@X<.V.Q.r.r.Q.%.a ] K.2X5X>X>X2X:XrXdXsXsXdXvXdXsXdXvXvXvXVXbXxXrXvXVXNXvXVXVXNXdXdXsXrX1XwXwXwX#X<X].].oXY.Y.U.K.W.Y.U.p.7.n.%.",
"}.V.r.( 4.v.W.W.B n.+X*X*X5X5XXX:X1XsXsXsXsXsXpX5XpXsXrX<X<X5X5XpXzXsXrXrXrXpXrXsXdXiX<X<XiXpX2X#X>XE.Y.`.W.`.E.U.E.U.F.p.6.n.*.",
"' N..XW.+XW..X@XN.XX2XXXOXpXpX2XpXpXpXpXpXpXiX5XrX2X#XoXOXOX`.E.)..XOX$X:X>X$XXXrXpXrX2X2X5X:XP.[.:X`.`.[.E.W.~.Y.Y.F.F.n.n.m.%.",
"_ N.cXlX+XN.Y.U.=XXX`.XX2X5XpXdXdXpXrX1X2X2X:XOXOXOXXX[.oXXXXX.XE.W.).`.XX+X>X>X[.*X2X2X5X5X[.G.M.XXXX+X`.K.E..XY.Y.N.N.n.n.D.%.",
"=X6XlXXX~.6.v.U.=X.X`.+X3X>X4XpX2X:X*X{.[.`.!.!.!.[.XX!.U.K.U.U.W.Q.U.N.N.K.W.`.K.E.`.XX+X>X+X[.M.[.`.[.`.K.W.`.Y.Y.N.F.n.n.D.*.",
"`.3Xk.F +XE.k.3X.X+X3X3X>X3X2X+X!.`.`.`.W.Y.E.!.`.E.U.U.W.`.Y.N.N.N.H.U.N.n.n.N.F.U.Y.K.K.T.XX*X*X>XW.).XX`.~.E.U.Y.F.H.n.p.N.<.",
"(.4XoXoX].`.5X+XoXXX+X+X+X.XQ.H.m.H.H.m.m.Y.^.T.T.T.U.H.N.N.N.b.u.m.D.p.6.n.p.<.p.p.p.m.m.D.J.T.XX[.W.!.`.`.E.K.W.W.U.v.v.b.b.<.",
"g.).].h.h.oX>X.X.X`.~.T.U.H.m.n.D.y.u.J.T.m.D.T.^.|.@X;X;X;X@X|.Y.F.n.6.7.2.7.u.u.y.y.u.a.a.m.H.U.K.U.E.W.W.W.W.Q.Q.H.b.b.m.u.%.",
"E.oX3Xk.3.XX.X~.~.T.H.m.n.p.p.u.=.a.D.m.a.J.;X0X0X0X7X7X7X7X0X0X0X;XT.n.u.u.u.=.2.=.2.e.y.y.y.i.p.n.N.F.U.Q.W.}.U.F.b.b.N.V.v.{ ",
"XXW.`.Y.Y.~.Y.|.T.H.m.p.a.D.a.s.y.y.p.D.-X0X7X|.a.e.@.W _ [ e.n.J.7X0X-Xm.y.y.y.2.=.=.e.y.e.e.y.u.p.p.n.m.F.J.Q.U.N.v.u.N.H.b.,.",
"%._ _ J.|.H.Y.T.D.p.;.y.f.D.a.y.;.y. XqXqXJ.@.U U U W @.@.@.@.=.@.W u.-X;Xa.=.s.e.=.&.9.9.9.9.e.u.u.u.u.a.m.m.N.J.N.n.b.H.F.u.O.",
"S +._ J.|.J.T.u.;.*.-.;.y.s.y.;.D.-X0X-X=.e b Y U Y @.9.9.$.$.8.U X.T v =.@X X9.y.9.&.=.9.8.8.9.y.e.2.y.u.a.a.n.m.m.H.Y.Y.F.4.' ",
"2.m.H.T.^.T.a.*.%.-.-.-.*.;.p.f.7X;XD.U e J ~ ~ ~ ^ ~ @.o.T ^ $.w.T Y X.J e #.qXd.y.8.8.8.=.$.=.=.=.9.y.y.y.u.p.p.n.F.Y.Q.N.6.1.",
"u.2.U.H.D.D.+.*.+.*.1.*.*.;.J.|.|.y.v b U Y T T X.~ o.$.o.! ^ o.o.8.$.K e b T $.J.s.9.8.8.=.$.$.@.8.y.y.9.=.e.u.u.p.n.m.N.N.N.F.",
"b.b.b.W.v.' v.<.v.) ) p.S 1.|.;X2.v v b W U U T ~ ^ ^ o.0.o.^ ! o.o.o.0.~ J e r  Xd.s.8.~ ~ 9.#.9.9.=.$.$.=.2.;.u.u.u.n.F.m.n.U.",
"Q.N.6X6XQ.Z.k.k.:.n.W.n.N.M.9Xn.4 = w V W v U =.Y ~ o.! K K ! ! ! o.0.8.o.^ ~ $.s.d.s.@.8.9.8.$.$.$.$.$.$.=.=.=.u.i.i.m.F.p.1.6.",
"MX$XZX7XU.6XpX>X>XlXxX5X>X5XM.8 - # = - V 2.Q 4 L ~ ~ J J ! ~ ^ o.o.o.0.$.o.8.w.W J.s.~ #.=.W @.[ @.@.@.#.@.@.@.&.e.u.p.n.1.,.u.",
"zX&XZ.N.5.S.bXtXzXoX5XpX#X:X5 % # 1 * O a < # V W W K J K o.o.K o.o.~ o.8.8.@.^ @.J.J.d.&.#.[ =.@.@.@.@.@.@.@.@.2.u.u.p.n.u.b.T.",
"6Xv.5.}.v./ .XpX5XK.5X>X`.f % % $ >  .C = # 8 x E L v L T ^ ! K ^ ~ o.0.9.q.8.@.e.@.9.J.[ &.=.%.%.%.@.@.@.@.@.%.&.e.e.u.u.e.i.T.",
"H.4.}.}.v.4.v.3X3X+X[.*X:.* * % k g.G $ > f a q q d c Y Y Y ^ 0.T o.0.$.o.#.9.s.y.b v D.%.a.m.<.<.%.%._ _ _ _ _ _ @.2.u.i.e.i.J.",
"( { b.<._ ' M / ' ' :.k.1 % * 6 3 > 5 > y 1 O . 8 d L E Y T @.8.~ o.$.~ ^ X.=.=.y.W Y T.u.|.T.T.m.n.b.2.,.%._ _ [ &.2.r.i.i.i.J.",
"b.r./ m.H.g 4 0 8 * M.n + o + H @   @ + o . O O x R ( R Y ~ ~ Y $.~ T T #.w.9.~ W =.&.J.<.J.F.}.@X.XW.Q.N.v.4.<._ _ E R E L I &.",
"m.j 7 ' 4.v.M Z m k.k.o X   5 t .   X X . X + # g V D U @.Y b v J $.$.~ $.q.X.K Y y.&.V.b.U.W.W.E.W.E.Y.W.W.N.1.' g q x N h d N ",
"( g 7 q h / a a F B.> . o o k @         o o o % B V l b W W T =.@.U U X.#.X.o.q.$.s.=.p.m.Q.oXR.R.(.'.`.'.'.K.h./ / ' ' M 4 2 7 ",
"q a 7 2 1 8 1 > A  .. .   + i o . X     X . X * 9 B R U @.W K W =.U Y q.q.o.$.q.q.9.=.y.H.N..X).oX:X:XOX'.R.M.3.,.M.E.U.,.l g Z ",
"/ f 8 7 7 u 8 y G y o X   , t y . & p | G i = o < v _ v U W X.9.@.9.#.~ 8.w.8.$.9.~ =.u.H.,.N.).(.].#X'.E.E.R.K.K.N.k.' / ( 4.v.",
".X' u 8 7 6 5 8 G @     . 3 t G x.j.A.Z.:.] f # ; N @.v J W K b Y s.W e T 8.o.s.s.#.e.<.b.1.4.5.Z.(.'.E.K.L.(.).Q..X$X3X6X6X.XN.",
" .' A 5 : $ > 3 >     @ > 6 y H >.G g.B.3.3.M O # 7 x e v U r < e ~ c w ^ X.T s.y.9.=.R 2.Q.4.A l.L.(.E.K.E.].OX5X3XOX.XOX6XtX6X",
"& u n y 3 : y y . X $ 6 t t t H | >.g.h.:.g * . = 4 4 2 w b b c w v Y W [ ~ ~ $.$.@._ N _ Q.4.F 3.K.].OXOX<XtXrX<X#X].oX:X5X5X>X",
"1 3 1 > y > 3 $   X @ @ @ > & i k ` ] M n 1 = h g N N v v e j @.R R e.e.Y @.i.@.&.E L P N ,.F :.`.5XxXsX5X:XOX'.OX].].:XpXrX].Z.",
"> : : : > > $ o o X   @ , @ o . + % = > 7 g M x N _ V v @.W c W %.p.%.c I @._ L I I Z { ` M.U.).rX5XtXtX4XbXGXvXuXsXtX<XrXrXrXxX",
"f 5 : & : & +     & 5 3 & X & 5 8 f M F ' ,.,._ P <.%.( ( c d R R Z R _ _ V R 4.{ <.N.3X6XfX5X$X5XL.L.tXxXpX1X#XbXzX<XoX1XdXVXJX",
"rX'.>.i & + & 5 i y k y | >.j.g.g.3.k.3.:.:.,.' b.%.N M _ 2.p.b.6.,.' / Z ' N.&XMXlXZXxX<XOXiXxXsXGX<X).VXvXC.g.sXvXvXVXHXGXnXhX",
"dXbXvX(.k & : y i 5 A n ).<X$XoXL.M.N.M.3.k.N.K.F.v.N.v.%.,.4.4.M.k.N.Z.U.7XZXbXzX3XtXtXVXNXVXrX).oXzXVXtXtXmXGXVXGXDXDXHXGXnXnX",
"tXzXVXVX#Xg.G ` k m R.K.<XE.Z.K.W.R.Y.W.R.K.U.E.K.F.W.W.v.M..XoX(.K.).$X$XtXbXbXsX$XuXyXVXhXhX#X].bXzX].<XVXmXwXFXGXBXnXBXSXDXHX",
"VXsXtXtXpXrXtXrXK.Z.oXoXpX.XR.K.`.`.W.OX5X4X>XtXlX+X).K.k.Z.oXoXOX5XsX<X'.%XuXsX$X%XyXwX,X1XDXJXJXB.A.zXvXVXVX<XsXmXSXDXFXSXhXnX",
">X$X#XOX$X$XOXoX3.Z.R.U.`.W.3XtXfXpX'.E.'.3.k m h.K.OXOXR.L.OXrX'.NXJXVXvXvXhXyXmXgXyXkXyXhXaX,XuXzXsXdXvXzXsXVXVXDXBXnXSXnXhXjX",
"pXpX5X4X4X>X`.K.K.lXtX4X@XW.3X6X<XpX#X<XbXE.n m >X2X4X4X1X4XtXuXGXGXBXmXhX{./.%XeXeXeXjXkXFXBXBXdXvXpXsXVXvXvXHXVXDXBXBXHXFXjXjX"
};
