/* XPM */
static char *_c0f608684024bdecc815a1ff634c5beJnoVyXzB7MaVcgjI[] = {
/* columns rows colors chars-per-pixel */
"64 64 167 2 ",
"   c #1C0000",
".  c #280C00",
"X  c #2C1101",
"o  c #331402",
"O  c #351904",
"+  c #3A1A07",
"@  c #371C0B",
"#  c #3C1D0B",
"$  c #3B1E10",
"%  c #3E220D",
"&  c #3E2211",
"*  c #411E0B",
"=  c #42230E",
"-  c #4C280E",
";  c #442512",
":  c #492614",
">  c #442915",
",  c #4A2A16",
"<  c #442619",
"1  c #462A1A",
"2  c #4B2C1B",
"3  c #532F15",
"4  c #512F1D",
"5  c #4D311D",
"6  c #52321E",
"7  c #58351D",
"8  c #5A381F",
"9  c #4C2E20",
"0  c #502F20",
"q  c #4E3322",
"w  c #543523",
"e  c #593623",
"r  c #563824",
"t  c #5A3A26",
"y  c #553729",
"u  c #583728",
"i  c #563A2B",
"p  c #5C3D2B",
"a  c #5E3E30",
"s  c #613F2C",
"d  c #603F30",
"f  c #5E412C",
"g  c #5E4232",
"h  c #62422E",
"j  c #6B472D",
"k  c #644532",
"l  c #694634",
"z  c #664934",
"x  c #6A4A36",
"c  c #654638",
"v  c #684738",
"b  c #664A39",
"n  c #6C4C3A",
"m  c #704D35",
"M  c #714E3C",
"N  c #6E513C",
"B  c #72523E",
"V  c #79563C",
"C  c #7D593F",
"Z  c #6D4F41",
"A  c #704F40",
"S  c #6E5241",
"D  c #745442",
"F  c #795643",
"G  c #765945",
"H  c #7A5A46",
"J  c #755748",
"K  c #785748",
"L  c #765A4A",
"P  c #7C5C4A",
"I  c #7B5E50",
"U  c #7E604C",
"Y  c #7F6553",
"T  c #825F4B",
"R  c #805E4C",
"E  c #805F50",
"W  c #826047",
"Q  c #80614D",
"!  c #81624E",
"~  c #82634F",
"^  c #84614E",
"/  c #82624D",
"(  c #8A664E",
")  c #8B684F",
"_  c #806051",
"`  c #826351",
"'  c #836450",
"]  c #816452",
"[  c #826553",
"{  c #846551",
"}  c #856652",
"|  c #866753",
" . c #816454",
".. c #836656",
"X. c #846455",
"o. c #856556",
"O. c #846452",
"+. c #8B6753",
"@. c #896652",
"#. c #876854",
"$. c #856856",
"%. c #856954",
"&. c #896A56",
"*. c #896A56",
"=. c #8D6855",
"-. c #8E6956",
";. c #8A6A55",
":. c #846659",
">. c #886758",
",. c #876A58",
"<. c #856A59",
"1. c #896A58",
"2. c #8B6C58",
"3. c #8C6D59",
"4. c #8D6C5B",
"5. c #8D6E5A",
"6. c #8E6F5B",
"7. c #8D6D5A",
"8. c #926E55",
"9. c #916E5B",
"0. c #8F705C",
"q. c #8E715F",
"w. c #8E715C",
"e. c #927057",
"r. c #90715D",
"t. c #91725E",
"y. c #94715D",
"u. c #92725D",
"i. c #99755B",
"p. c #9A785F",
"a. c #906F60",
"s. c #8E7161",
"d. c #8E7165",
"f. c #927361",
"g. c #907363",
"h. c #947561",
"j. c #967562",
"k. c #967763",
"l. c #947562",
"z. c #997662",
"x. c #997663",
"c. c #957965",
"v. c #9A7B67",
"b. c #9A7A66",
"n. c #987768",
"m. c #9B7C68",
"M. c #9E7F6B",
"N. c #9D7D6A",
"B. c #A07E65",
"V. c #A07E6C",
"C. c #9F806C",
"Z. c #9D816D",
"A. c #9F8272",
"S. c #A0816D",
"D. c #A1826E",
"F. c #A2816D",
"G. c #A38470",
"H. c #A58573",
"J. c #A88774",
"K. c #AA8975",
"L. c #AC8C7B",
"P. c #B18E7A",
"I. c #AF907C",
"U. c #B1927E",
"Y. c #B1917E",
"T. c #B39482",
"R. c #B89985",
/* pixels */
"f h t p G P n B p k t h 0.G } G n z G n N n } G } x k h G ! h k k g 0 2 p p w p k w t M s , +.h p + q i g P z 1 > w w > g w i q ",
"f n k k B n k B D n B D t D k.! D N r D n } D } k P B p p k n x 2 a n n n z n D k D k l n s 4 e ; p g i & o > i g g w L i g i b ",
"n k D D t r k p p h h P G G ; # D 6.k.P B t p x n n w N N : r k S g p k n P P x l D t 6 s H s ^ &.n p S p i ..n 1 k i 1 S D g b ",
"n G P D B z k n ; ' U.C.B t , 0.B P 6.x D G #.p } S.6.B h p x h P b c n k x D D M D G P n F h w n P k b S q 2 g n n g.n p q b i ",
"k 6.G N M.0.n r.k r P x k ! } n B x k n 2 r.G.! &.&.G r n S.m.6...b Z o.P D P P B P x l x h ;.F # o N 0.U P G D P k + p P ' 2 P ",
"G B D U ' #.} G P p D G 6.D n h ' h B ! r h P D n t k h &.I.b.G.s.S n Y 1.` P P l k.R H z.h M s n k f p <.#.1 i ' k J N ; & ; b ",
"} h D ! h n ! f } } x k G t 6 B P 6 h n 2.p p 5 r 6.S.U N G D n k J o.P x p n 6.p M h B @.R ;.y.P D B n n D D D n G f.w P P x B ",
"n 0.D h P B p } h ! k t , ! r.r r n p D B t O p G B 2 h B r 5 = @ n P D n n l D s ; h ;.n @.@.F n 4.D D ` n n k D n P &.f.T.D n ",
"! 6 x D k P P 6.! p w 6 k x h k.k.r.} z ; D B p } k n t G = + w k i n a P f.M } @.l B B F B h H s x f k h P 0.2 = P h k P n ; ! ",
"b.! P r.D #.} 5 t , 2 0.U p ' D P G P } G 6.! ' h h &.n z : 6 r.7.w p X.k P n ` r.m.M B F M 9.F x } P h x n n ! n p p z ! , ; n ",
"D p n # r.&.G h x ! 6.P D G n x k h h x k z 2 r P k G x D n , p 1 p k k k n w ; h h l s M ;.@.P j.! G k D G t G &.B B p h h D h ",
"6 D 2 ! 6 , P G G r.r.6 t P f N D D n h B ! x n x n D D D B h k 2 i k k f.p h k w : x x B ^ l D ^ n -.r.F F R -.j.S.r.G p k.k.l ",
"r #.D B n n + B h p 6 D x z k.' P G n h P } n n x U D ! D n } P A.J ` n n 5 ! D 6 n h H F h H M t : , n D G } h h B n W P &.G P ",
"n P ! k &.z b.w , = = t k k D D 6.B D D } B t t G D x G #.G ! r q k c k p } -.} p P @.^ H F H M t 2.P P G p n R r.2.| D ! t t k ",
"B b.S.N h } B r.P U } h P r.x } N r x k n k k k t 2 G B P D G B b S n ` P P ; D &.&.P.y.^ +.l B ^ 6.G B P n s x 6 p k : t h D V ",
"P n k p h P D B G n x #.! N ' G G n ` p p n 1.! D = ` r k G P k.#.n o.n p P G P ! P n ! H h H +.W t D ! H ! R } p B D P k } } D ",
"P x * r r.B n h n f.N i G ; k Z.D ` P n k u n n.H.k k P n n o.H.b.B ( x ~ M.f P G 2.P k D D v n p k l } ! n &.r.V D B x k.B ! 6.",
"l h m.b.9.b.U f 5   L k.X N w.5 k n n D P n p p 0 p n n D v k m.! N 2 8 P | U P ! B k 9 < k D c l &.n n r.} B ( 6.h k z.&.B G D ",
"M 4 M P n P z h c.G 2.2.f N b G ` D n v k k w # ; d D p p P D s 6 n h N n t x N n p D k.` u w k B n ! G B | ! t 6 r.R b.k.} h | ",
"H H * e k h k D h k t f z O 5 r u p D P A D D p w 4.>.u v n 2 w n n U U U H t r n k P P p n I p D ^ P 6 h ! G u.r.! P t G x ! r ",
"t 9.x s r p k k h p : + 5 w U z p k P D p p u ; n # k o.P ` E k r p G n r r r k f.; 6 D u c 4.D : p D n ! &.k F D ' 2 } + s w G ",
"&.! m.P w B G U n z w w B 2.5 k P D D K K E ` K k w p v E k.a.k.2.G p D 6.k.k.k # G P k D X.n r } k B P F -.k.6.D P r 2 6.! P 6.",
"&.p x t 6 z B D r.p t n p D z U Z n k Z P A u 2 P K a.D 1 w P f.! G P } #.6.&.x ; P N k ' z ; n p G h s ' B t n j.' ! k p x H.k.",
": B h 6 P G P t h ! ~ G G w n h D v w u n n k D X.p 1 k E k 0 a.} p 6.B n r.z n 0.h n D k &.C.k x ! R } D k D h s l h D 6.x k D ",
"B #.6 k z x H U , x ! p x z G r.a n w v n d P n w d k ` E D D # k P D 2 2 p 6 r H.&.p r n G D z n l p D P D F D p 2 4.L.2 p ; 2 ",
"z k n h n } f p B k p k } ! P 6.P v P D n D D M.X.v n P K D v d p k D w + O ; } f P b.R.G o 6 t 2 4 2 k P ` R l n n r.R D ' n 2 ",
"#.2.D f k N f.H P G n R ! B k D ` E n P P n P P >.k D Z n Z p k k p E I P D k k.D k k.k.n B B k s &.r.P p w M P K.1.e ; n D p r ",
"G P k z D z v.x 5 n M P k p r p v E k P ` n P w w p D Z D >.P n K k D p k P w p t ! G 6.D x k.x P o.D n s p B M w M p D R ! D j.",
"p O w w z n p : B P x G k l l s p u D D n n p Z w D A D D D Z w n n ` c k o.n p ; r D n n z f r.F v w k D D D k n o.n p 0 k p 2 ",
"%.P P U B f N D r.} k G B n @.^ 4.D n P D p k P D o.n D K p k p 2 9 n D D P n k n ' + = B n H B P P n D k w v D P n K k P D D 2 ",
"i <.n U z % f r p h t n M x z.@.n.N.k ` 1.Z 4.D D P D D o.` I o.P Z k Z n k G n ! k.P r l W k 6 P A u u p k D D D a I w k p n >.",
"z N f f b U f k p D G H ^ F 9.: # p A p k o.X.D D ` >.x D o.k p p n k P n n 4.D k P G G x k ! U n n p p n G ` N n G &.D f.L.n p ",
"H b.} p p s h D F 9.l T @.M t h h B k.! k n n D G : : M D s v R -.o.n n G R @.F B h t h n n n N t t t 2.k.k n ' ! ' n D r.N 5 N ",
"h D B M R R M M s x F ^ l D =.F n #.P 6.D r D x P n k D ^ M s M e l ! x w t 6 p s h x B D D n k x N N z x B G 2.U z k H #.U P ;.",
"H w t ;.9.p , l R R D e s n M B U x D } 2.6.&.&.P G r.' s H j.M F x ! k x +.x n B D B M B G G D D n z # ; k 2 6 G N D h 2 B ` r ",
"s s x M x M D B +.M B t R D l ! U f G D B ! x D 9.B P G e B z.H F l G x n R B ' G B x x B G ! &.D G G p 2 2 2 x N B H h 2 D 6.k ",
"l M F M M ^ -.! l : ' } M l D n ; k h B x k 9.} 6.B : s ;.h : R ! D D @.+.F B G x p s D P F D G N n 5 p k f D o.D k x P G n P b.",
";.M x } -.B h M M l @.H l M F s G U P D N D P x p B k l R h , D ' B s G ' M B n B x n G H n k k D P p N &.o.f.U n n z G ` k k 6.",
"l G D n R } B l P -.F D P &.&.! D w N k x &.n n : n @.M w l T H R P } ! P P ' k.D G G n x n M M w K o.P n d k n k D D A P P D D ",
"B } P F ' H D 6.G M D M.k h P z h z z G h 2 k x l M h e s x F 9.B t n h G b.n t 4 n G l h G +.! P v n n P ` k D P n n D A n p 2 ",
"B B ! M k n B } P ! J.x p J.t k k N k } k B k ! U.B l D M R s 9.G R n n ' P x B F M } s M P 2 } D k r k p 4 n ` p G P R n P h # ",
"s G p x G P &.r P p 6 6 h } 6 r ' n t x k z p k x h ' l ^ 9.D h k B x D 6.n 2 x B k ! M n F p F x n k l k h o.m.G B n D n n l n ",
"; t 6.B x &.P r.x G p h D 6.D , 2 5 t r k h h r x h ;.F ^ R P ;.} k.9.B p k B M } B ' ! B G P R F ^ R @.@.} 9.@.F x h p h 6 e l ",
"6.D r D k.0.P p x x f k.U.k.} G 2 z P n G #.} x e 6 l P e 2 4 n.V.e p } D D R l k h h n n n D B B W ^ =.} V B h s h l 7 H R F h ",
"n p 6 D 2.! U B P p w B r.P k k ' f.6.G k G ! ! p D ;.y.M B x ^ x G ' B k G ! k k P B ! S.k.&.&.u.) F ) y.) @.H F W @.V z.B.9.j ",
"x P J.B + + ; } P n h o % 6 6 p C.N = w n G k e P G P h M x M p r P D x B 2 ; 6.B ' l k } F x P h C ( -.V t V e.H W p.-.m 8 j j ",
"P ' r p r 2 N z D f f , 2 + f k.; r G D k 2 k R } k r 4 n h M k t } D n S.J.' ! ! P n p p t t B ( V h C i.i.) j 7 3 V 8.t - h C ",
"N r k N n f 6 z n ~ U t h p B n ; t ! h U B ' l * , : B P &.F x F k l k r h D n F M } P k l l B h W ^ H m V 8.e.V 3 h B.) e.( x ",
"l r.W | H z P 2 6 0.s f n &.` ; G n l h t h n x N ! B D x n N f.b.6.h f r 2 x B k N h N D k N h R R D D ^ x k r.@.( y.H l h F h ",
"W P P 2.( V B t ; 4 &.x 6 B p s S.H h h n W W h P B B z N 6 z 0.r.P x P &.' G n p p x k n G } r n v ; 2 P V.P n n ' P k W n x W ",
"! n H H D W D H k.x x b.n 6 p k , 6 ( K.&.n x z n k z f S p N #.P n n N D D k k w G U ` x } D D w 1.1.P D ` D P x p x x B x G P ",
"h N | P V P B h P ' M.M.k r.n n = p r.k.G | 0.k h n f z g G b k w 5 k p p k k P 5 n P n D n 2 o.P E D k k p k P P h G P G G r.W ",
"r.| B h t l ( G V.9.x 2 r M P P &.B G ' D B G n D D p k p S y @ 2 1 k a a n p n k 2 n 2 P k n J p ; 2 u 4.D k 2 M ! P l 2.} P P ",
"B h h | u.| 2.H M.x o h L.# s 2 ! D P &.n , 2 k N 2 1 w b i i 1 $ 2 n D D P ` g.Z w n D 2 D o.k D n D 2 p e P ` k M D h H G G k ",
"n t l P ( 2.( | h ; D 6 k w p x n o.D 2 w D n 2 k @ < i Z a c a y c c a 2 $ < 1 i c i I $ b c a K o.o.c 2 w k k D h U U H G | h ",
"H n u.B t B t x 6 2 p s o 4 w ; p w ; w D p 2 p c p i J g b i 9 w p q b P K J p i n i q g.i a b p D n P 2 k p p x B G B 6.D n B ",
"l n n | V H x ; 6 r t M 4.n n k 2 + 2 w n ' P o.>.P n K g S Z Z k g g L d.J 1 & g L g Z <.S g i ; ; w k D N p n G n D k z x } U ",
"l W l 7 &.( P l t B 4 x p D D P x : ; w D o.n k ; n :.S d.i 9 g S n g k S k g L Y k q :.:.. X Y n k u 9 n } n p t x x n B z 6 6 ",
"P V P P ( B 2.} } k.R h k k D M t h D n h h k G f p p S b b c n c c g k z w 5 i g g w 5 2 z 7.$.D 2 $ 1 w 2 q ..p G f f f f 5 U ",
"7 | r.W t | k.t n R &.x ` F ` D B n M n n B D P f.k 2 n 1 g i 1 & < q p i 1 > 5 q S w X < D S q u D <.n r q 2 p n n 6 h L U N ;.",
"h B 7 V W B r l r k k ! P 4.n B V x t r t p p r B k p % w O 1 f 5 5 q q > & 5 g 1 <.L g Y g X 5 2 u i 2 k ..n q w 5 h k h 5 h N ",
"W V n z H t x k B k h M P D t h G r.r.W t : t x p r z k q 2 z D b q q g N G n r f b w.c.w.Y G U q b P k 1 + % b G G m.0.G w n N ",
"F.n H u.P = n P G t x t ` B n n h V n n h 6 6 = p r B m.t N n ; g > 1 b <.c.%.f U ; b <.L G L L p S P S $.Z.L p N b b N %.L f % ",
"V ;.B U H V h x B l k n M ` p n t h t B W H m : ; , f 6 t p N f %.b g f q f N b 5 L b ; D L % 5 S w q k P U J g.k L w 1 5 b N c."
};
