/* XPM */
static char *_93dee9663a24e1dc1094ee6a20e3fca5lnbmXZ0gEjsSnJk[] = {
/* columns rows colors chars-per-pixel */
"64 64 193 2 ",
"   c None",
".  c #060605",
"X  c #090706",
"o  c #0B0907",
"O  c #070708",
"+  c #0C0B0B",
"@  c #090708",
"#  c #120D0C",
"$  c #0F0F10",
"%  c #110F10",
"&  c #141212",
"*  c #191514",
"=  c #1C1916",
"-  c #191718",
";  c #1C1B1B",
":  c #15100C",
">  c #221D1C",
",  c #211C17",
"<  c #23221D",
"1  c #211F20",
"2  c #232422",
"3  c #262824",
"4  c #2B2B26",
"5  c #2C2C2B",
"6  c #2A2525",
"7  c #312C2C",
"8  c #2E302C",
"9  c #35322D",
"0  c #312F30",
"q  c #2F3030",
"w  c #343434",
"e  c #3A3535",
"r  c #373835",
"t  c #393B35",
"y  c #35363A",
"u  c #37383C",
"i  c #3B3C3C",
"p  c #403D3A",
"a  c #3F403E",
"s  c #444135",
"d  c #44423C",
"f  c #4D4A3E",
"g  c #484539",
"h  c #3C3D41",
"j  c #3E4142",
"k  c #434444",
"l  c #4A4544",
"z  c #464946",
"x  c #494A46",
"c  c #454649",
"v  c #46494B",
"b  c #4B4C4C",
"n  c #524E43",
"m  c #534D4B",
"M  c #4E514E",
"N  c #535043",
"B  c #52524D",
"V  c #59564D",
"C  c #5E5B4C",
"Z  c #585545",
"A  c #4D4E51",
"S  c #4E5152",
"D  c #535353",
"F  c #565854",
"G  c #5C5B55",
"H  c #53565A",
"J  c #56595A",
"K  c #5B5C5B",
"L  c #595451",
"P  c #605F55",
"I  c #5E605E",
"U  c #62625D",
"Y  c #69665C",
"T  c #6A6858",
"R  c #706D5E",
"E  c #5B5F63",
"W  c #575B61",
"Q  c #5F6160",
"!  c #646462",
"~  c #676865",
"^  c #6B6A64",
"/  c #6B6C6A",
"(  c #696867",
")  c #716C6B",
"_  c #726F62",
"`  c #6F716D",
"'  c #757264",
"]  c #797664",
"[  c #72726E",
"{  c #7A766E",
"}  c #7C7A69",
"|  c #696F77",
" . c #6E7174",
".. c #6C727B",
"X. c #757573",
"o. c #767875",
"O. c #7B7B75",
"+. c #75797B",
"@. c #7C7D7B",
"#. c #72767A",
"$. c #817E6E",
"%. c #827F7C",
"&. c #817E75",
"*. c #7E807F",
"=. c #84827C",
"-. c #89857B",
";. c #8A8777",
":. c #95927E",
">. c #908D7C",
",. c #7A7D80",
"<. c #847F80",
"1. c #7F8182",
"2. c #848583",
"3. c #8A8582",
"4. c #868886",
"5. c #8B8B85",
"6. c #878989",
"7. c #8B8D8B",
"8. c #918C88",
"9. c #8F908C",
"0. c #939185",
"q. c #93938C",
"w. c #9A998C",
"e. c #999683",
"r. c #929392",
"t. c #979893",
"y. c #9B9B95",
"u. c #9C9C9B",
"i. c #989796",
"p. c #A19E8F",
"a. c #A39F93",
"s. c #9EA198",
"d. c #A2A295",
"f. c #A3A39D",
"g. c #A9A59C",
"h. c #A8A89B",
"j. c #A3A4A2",
"k. c #A6A8A5",
"l. c #AAABA4",
"z. c #ACADAB",
"x. c #AFB0AE",
"c. c #AEB5A7",
"v. c #B2B3AC",
"b. c #B8B8AD",
"n. c #AFAFB0",
"m. c #B3B5B2",
"M. c #B6B9B5",
"N. c #BBBCB5",
"B. c #B3B6BA",
"V. c #BBBCBA",
"C. c #B7B9BB",
"Z. c #B0AFAA",
"A. c #C0BDB5",
"S. c #BFC0BD",
"D. c #BEC1B7",
"F. c #C3C2BB",
"G. c #C8C5BE",
"H. c #BCBEC0",
"J. c #BFC1C4",
"K. c #C3C4C2",
"L. c #C7C9C5",
"P. c #CBCAC5",
"I. c #CBCDCB",
"U. c #CCD1CE",
"Y. c #D2D2CD",
"T. c #C7CFD2",
"R. c #CCCFD1",
"E. c #C7D0D5",
"W. c #CDD3D3",
"Q. c #CAD3D9",
"!. c #CFD8DF",
"~. c #D2D4D3",
"^. c #D4DADB",
"/. c #DBDCDC",
"(. c #D5D7D8",
"). c #DDE0DE",
"_. c #D8DFE2",
"`. c #DCE2E3",
"'. c #DEE4E8",
"]. c #E4E4E3",
"[. c #ECECEC",
"{. c #E5E8E9",
"}. c #F0F0EF",
"|. c #EAEEF0",
" X c #EDF2F4",
".X c #F6F6F6",
"XX c #F4F4F4",
"oX c #F7F8F8",
"OX c #FBFBFB",
"+X c #FFFFFF",
"@X c #FDFDFD",
"#X c #FBFBFB",
"$X c #F5F6F8",
/* pixels */
"                                                                                                                                ",
"                                                                                                                                ",
"                                                                        @X@X@X@X                                                ",
"                                                                @X.X[./.~.I.I.I./.[.#X                                          ",
"                                                              .X].K.u.@.~ J F F / i.I.XX@X                                      ",
"                                                          @X[.I.u.X.K D x k e 5 2 0 / V.[.@X                                    ",
"                                                        #X].M.@.K b k a i w 6 1 - % - J V.XX                                    ",
"                                                      #X].z.X.D i r 5 2 1 ; = & & + O - / I.#X                                  ",
"                                                    @X].z.[ D i 5 < = & & + + + + @ O . 2 2.~..X                                ",
"                                                    XXK.O.B x w 3 = & + + o @ @ @ O O . @ 5 X.I..X                              ",
"                                                  #X/.q.G l i 7 > * # o o O @ @ O O . . @ + 2 4.].@X                            ",
"                                                  XXM./ l e 7 6 = # # o . . + & $ + @ . . @ + v V..X                            ",
"                                                @X].u.U d e 7 > * # o . + 2 b ! ! b 5 + . + + 2 7.{.                            ",
"                                                #X(.r.^ b i 7 > & # o & t [ i.j.u.r.+.u @ @ + & ! ~.@X                          ",
"                                                .XL.2.( l p 7 > & # # d =.f.z.j.i.r.4./ w & + @ w z..X                          ",
"                                              #X{.m.%.) m i 7 > * o # B u.v.j./ b ! X./ D - @ + 2 4.{.@X                        ",
"                                            #X[.(.z.<.) L e 6 > & o * G s.l.9.a & 9 U J i & @ & ; K K.XX@X                      ",
"                                          #X[./.I.z.2.X.G e 6 = # o > ) l.g.5.Y x V F D c & + - 5 b 1.V.{.                      ",
"                                        #X[./.U.L.v.5.O.Y d 4 = : o < { g.y.-.' _ T d w 7 ; 1 5 y b o.u.I.#X                    ",
"                                      @XXX`.W.I.L.N.t.=.{ Z 9 , # # 9 -.a.0.-.;.] T n 7 = * = ; 4 ~ m.W./.#X                    ",
"                                      .X].~.U.I.I.K.f.=.=.^ d 9 < * l >.p.w.e.e.>.;.' n 9 < < r U V.XX#X                        ",
"                                    #X{.^.U.I.I.I.L.v.=.{ { Y L m p d Y $.>.e.:.:.>.} C g s g B 2.(.@X                          ",
"                                  #X[.).W.U.I.I.P.L.N.d.=.O.O.[ [ [ ^ V f C R ] } ] T C f N V F 7./.@X                          ",
"                                @XXX`.W.W.U.I.I.L.K.F.b.g.0.=.=.3.3.8.=.^ C N f f g f Z N f d F i.].@X                          ",
"                                oX{.(.W.W.U.I.I.L.F.N.b.v.g.q.5.-.3.8.5.%.[ Y G V n s s s s k K z.[.                            ",
"                              #X[.^.W.U.I.U.I.I.K.M.v.v.v.v.l.t.=.%.3.2.O.[ ^ U U G B f d d b  .K..X                            ",
"                              .X`.W.W.U.I.I.P.K.V.M.m.z.z.z.z.j.4.X.+.O.[ ^ / ~ Y G B x x k M ,.I.#X                            ",
"                            #X|.^.W.W.W.U.L.S.V.M.V.M.z.j.j.k.j.7.~ ! / X.[ [ ~ ! G B M b D K 2.R.#X                            ",
"                            oX{.(.W.W.~.Y.K.M.M.M.M.M.z.f.j.f.9.X.K D ! / [ [ ~ U K B M B K ! 1.I.#X                            ",
"                          @XXX`.W.W.W.W.I.V.M.M.M.m.m.x.j.u.7.X.K G F U ! / / ~ J F D M F K E +.J..X                            ",
"                          #X|.^.W.W.W.U.L.M.m.M.M.m.m.x.u.4./ ! ~ U U ! ! U ! K F c k z v D K ..C.XX                            ",
"                          oX{.(.W.W.U.I.K.m.v.m.m.m.x.j.4./ K / X.~ ! K K K J F x k i j k S E ..B.XX                            ",
"                        @X$X`.(.~.U.U.I.L.M.m.m.m.x.j.r.+.! ! X.` / / ! K J D D b x h j j A E | B.XX                            ",
"                        #X X!.Q.(.W.W.I.I.M.z.z.z.z.i.@./ F I ~ ! ~ / ~ K D A c j j i h k S W | B.XX                            ",
"                        #X|.Q.Q.W.W.W.I.I.M.k.k.z.j.7. .K A K I I I K J K J S x h y y h c A H  .C.XX                            ",
"                        .X'.E.E.W.W.I.I.L.M.j.j.j.f.7./ F b K J D D D D J A A b j w w i j v H  .H.XX                            ",
"                        XX`.E.T.W.U.I.P.K.m.k.j.u.i.2./ D b D b x B D D D A S b k i i i h v H #.K..X                            ",
"                        XX_.E.W.W.Y.Y.P.S.v.k.f.u.9.O.Q J ! ! J B M M b x D D v h i h j k S J ,.I.oX                            ",
"                        XX`.T.W.U.Y.Y.P.S.x.k.f.i.2./ F J X.+.` K b b b b A k j i u i a j S J 1.~.#X                            ",
"                        .X`.T.I.U.Y.Y.P.V.z.j.i.4.[ ! K / 1.2./ F z z x b c y y w u i i k S H 6./.@X                            ",
"                        #X{.W.I.I.Y.Y.L.b.j.y.4.[ U K X.7.r.6./ J i i h h h h i y y w i z S J r.].@X                            ",
"                        #X X~.I.I.P.Y.G.v.d.0.O.^ K ~ 4.r.4.2.X.K j h u y u h i i i i i x b K j.{.@X                            ",
"                        @X.X/.I.I.P.P.A.l.u.3.O.! ! @.r.7.1.X./ K b j u y y u y u y i d x b ~ C.XX                              ",
"                          oX].W.I.P.P.b.f.0.=.[ U ` 2.7.7.*./ J S S x k h y y i i a a d x F @.~.#X                              ",
"                          #X[.~.L.L.L.N.q.[ ~ ~ ~ O.4.7.6.+.~ D x x v k h u y u u i d c x K j.{.@X                              ",
"                          @XXX/.K.K.L.F.u.~ ! [ [ @.4.4.1.X./ J D b c h i u w q 5 4 r k x X.L..X                                ",
"                            #X{.I.G.G.F.N.f.q.5.@.O.2.2.@.+.+.( J J J D c u 5 4 2 3 r i b i.].@X                                ",
"                            @XXX(.K.F.F.N.b.f.t.2.@.@.O.o.X.o./ I J F S c i 8 2 2 8 r d / F.XX                                  ",
"                              #X].I.F.N.N.m.l.y.7.=.O.o.X.X.X.~ J D b v k i 8 < < 4 r D i./.@X                                  ",
"                              @XXXY.F.N.N.M.l.u.9.2.@.O.[ / ~ K D b b c k u 5 2 3 8 k X.K.XX                                    ",
"                                #X).F.N.D.N.c.s.q.7.=.O.X.~ ! K F D D b x i 5 3 4 t ~ z.].#X                                    ",
"                                @X[.P.M.D.N.v.d.q.0.2.*.O.[ [ / K F D D M i w 5 u U u./..X                                      ",
"                                  .XY.c.v.b.v.f.t.q.5.=.O.o./ ~ U G B b a r r a [ z./..X                                        ",
"                                  XXL.s.d.c.v.l.u.q.3.=.o.[ ~ G F x b k t t x @.V.].#X                                          ",
"                                @X(.u.y.w.d.h.d.0.3.O.[ Y ~ ! I x r d d d K 7.K.[.@X                                            ",
"                                .XM./ 0.0.-.w.d.w.5.} P g G Y U d 7 r k b 7.~.XX@X                                              ",
"                                [.j.U @.f.m.V.F.b.d.;.T n g U ^ V d 9 t k o.I..X                                                ",
"                                XXF.r.j.Y.[.XX}.].I.y.&.' f f ^ ^ Z p 9 3 y @.(.@X                                              ",
"                                  XX].{..X      @XXX~.M.Z.t.=.O.^ f s k w w ~ K..X                                              ",
"                                                    #X.X}.{.].I.z.u.i.u.i.i.n./.#X                                              ",
"                                                            @X@X#X.X.X.X.X.X.X@X                                                ",
"                                                                                                                                ",
"                                                                                                                                ",
"                                                                                                                                "
};
