/* XPM */
static char *_c11c73c4c4b45bd856be7bf3a38d491ixFsVL73GbiWttVo[] = {
/* columns rows colors chars-per-pixel */
"64 64 245 2 ",
"   c #160C03",
".  c #19140D",
"X  c #1A1514",
"o  c #1D1C1B",
"O  c #1A1714",
"+  c #080200",
"@  c #241D1B",
"#  c #261D17",
"$  c #391D0E",
"%  c #1F211E",
"&  c #23221D",
"*  c #2B241B",
"=  c #362519",
"-  c #1B1E23",
";  c #1F2125",
":  c #242423",
">  c #2B2524",
",  c #262826",
"<  c #2B2A25",
"1  c #25262B",
"2  c #29272A",
"3  c #262A2A",
"4  c #2C2B2B",
"5  c #322A24",
"6  c #332D2B",
"7  c #3A2D2C",
"8  c #382A24",
"9  c #2E302A",
"0  c #34322D",
"q  c #3B322C",
"w  c #3C3629",
"e  c #2D2D31",
"r  c #242931",
"t  c #322E31",
"y  c #382F30",
"u  c #2E3134",
"i  c #2E343C",
"p  c #343332",
"a  c #3B3433",
"s  c #3B3A35",
"d  c #3B3739",
"f  c #3D3D3B",
"g  c #34373A",
"h  c #201F24",
"j  c #45291A",
"k  c #422D26",
"l  c #453429",
"z  c #543728",
"x  c #423532",
"c  c #433B35",
"v  c #4B3A33",
"b  c #433D3B",
"n  c #4A3D3B",
"m  c #443735",
"M  c #533C34",
"N  c #5A3E35",
"B  c #613E28",
"V  c #3F413E",
"C  c #45423D",
"Z  c #4B433C",
"A  c #4D483D",
"S  c #474236",
"D  c #5B4335",
"F  c #53433C",
"G  c #5B453C",
"H  c #534A3C",
"J  c #594638",
"K  c #57523E",
"L  c #63463B",
"P  c #67493B",
"I  c #724A3D",
"U  c #69503D",
"Y  c #76533C",
"T  c #383C43",
"R  c #403F47",
"E  c #3D4143",
"W  c #444343",
"Q  c #4B4543",
"!  c #4D4944",
"~  c #44454B",
"^  c #4C4C4B",
"/  c #544542",
"(  c #594641",
")  c #534C43",
"_  c #5C4B43",
"`  c #554D4A",
"'  c #5D544B",
"]  c #58534A",
"[  c #494B52",
"{  c #545352",
"}  c #595656",
"|  c #504F55",
" . c #634D43",
".. c #624F49",
"X. c #694E44",
"o. c #764A44",
"O. c #6B5144",
"+. c #65524C",
"@. c #6B554B",
"#. c #625A4C",
"$. c #685648",
"%. c #755444",
"&. c #73554B",
"*. c #745A4D",
"=. c #7B5B4D",
"-. c #7A5746",
";. c #635C52",
":. c #6D5B53",
">. c #655754",
",. c #745B53",
"<. c #7C5D52",
"1. c #785955",
"2. c #7C614D",
"3. c #6B6355",
"4. c #6C665B",
"5. c #666356",
"6. c #756256",
"7. c #7D6254",
"8. c #74625A",
"9. c #7C645B",
"0. c #736C5C",
"q. c #7C6B5C",
"w. c #706C59",
"e. c #5A5C61",
"r. c #5F6160",
"t. c #696867",
"y. c #7D6A63",
"u. c #796A62",
"i. c #7B7464",
"p. c #78746A",
"a. c #777678",
"s. c #676B71",
"d. c #825C4C",
"f. c #895C48",
"g. c #825E54",
"h. c #895E56",
"j. c #89644E",
"k. c #836254",
"l. c #8B6455",
"z. c #82645A",
"x. c #8A645B",
"c. c #85695D",
"v. c #8B6A5C",
"b. c #8A6954",
"n. c #936D5D",
"m. c #986B57",
"M. c #8C745E",
"N. c #88785E",
"B. c #96725D",
"V. c #91634B",
"C. c #A2745C",
"Z. c #A16E5A",
"A. c #846C63",
"S. c #8B6C62",
"D. c #856763",
"F. c #926C63",
"G. c #986B64",
"H. c #847464",
"J. c #8C7364",
"K. c #857B65",
"L. c #897C66",
"P. c #857C6A",
"I. c #8A7D6A",
"U. c #86746A",
"Y. c #947364",
"T. c #9C7463",
"R. c #9B7965",
"E. c #947369",
"W. c #9B756B",
"Q. c #9D796A",
"!. c #937C67",
"~. c #8A7E71",
"^. c #837D75",
"/. c #987A72",
"(. c #A37564",
"). c #A57B65",
"_. c #A27B6B",
"`. c #A97B68",
"'. c #B27D66",
"]. c #A27C72",
"[. c #AC7E73",
"{. c #8D816C",
"}. c #8A846B",
"|. c #92836D",
" X c #94896E",
".X c #98886F",
"XX c #97846A",
"oX c #8C8473",
"OX c #898679",
"+X c #948572",
"@X c #998673",
"#X c #958974",
"$X c #9B8B75",
"%X c #948C7B",
"&X c #9B8C79",
"*X c #918579",
"=X c #9C927D",
"-X c #97917B",
";X c #A5816C",
":X c #AD836D",
">X c #A78266",
",X c #B4836C",
"<X c #B9866D",
"1X c #AE8972",
"2X c #A28D7A",
"3X c #A98576",
"4X c #B38B73",
"5X c #BB8B74",
"6X c #B68978",
"7X c #A1917C",
"8X c #A3987C",
"9X c #B89279",
"0X c #C38D75",
"qX c #C3937C",
"wX c #C9957A",
"eX c #D39C7D",
"rX c #D7A17D",
"tX c #7B8086",
"yX c #9C9483",
"uX c #989484",
"iX c #969690",
"pX c #A49A83",
"aX c #A59A86",
"sX c #BE9481",
"dX c #B59884",
"fX c #AB8E80",
"gX c #A9A18D",
"hX c #BBAE9B",
"jX c #B6AB96",
"kX c #BCB39C",
"lX c #ACA692",
"zX c #BDB3A1",
"xX c #C89983",
"cX c #D59D84",
"vX c #D9A588",
"bX c #D8AA93",
"nX c #C1B39E",
"mX c #DAB39C",
"MX c #E4A98A",
"NX c #E9B297",
"BX c #E9AF99",
"VX c #C2B9A5",
"CX c #C5BBA8",
"ZX c #F0B6A2",
"AX c #CDC4B0",
/* pixels */
"K.K.K.K.P.P.P.P.P.I.L.K.I.jXnXnXjXXX{.pXpX X XaXpXpXlXVXVXVXCXkXVXVXAXCXAX&XK.#X#X+X&X+X$X$X&X$X&X$X$X$X$X$X%X%X&X&X&X&X2X7X7X7X",
"K.K.K.K.P.P.P.P.K.I.I.L.+XhXnXnXhX8XpXlXjXjXlXkXkXVXjXjXCXzXhXCXCXhXaXhXAXoX{.&X#X&X+X$X&X$X$XpX$X$X$X$X$X%X&X&X&X%X$X&X&X2X7X7X",
"K.K.K.K.P.P.I.P.P.I.I.K.{.jXhXhXnXkXhXhXhXkXzXhXaXaXgXyXi.3.3.0.4.' w #.%Xi.P.i.P.#X#X$X+X&X+X+X$X$X$X$X$X$X$X&X$X$X$X$X&X2X2X&X",
"K.K.P.P.P.P.P.P.P.I.I.K.|.hXnXVXjXkXjXzXhXlXlX%Xi.3.OXoXA w S c c ) ) ! A S ) #.0.P.#X&X{.-X7X$X$X$X&X$X$X$X$X&X$X$X$X$X$X&X&X&X",
"K.I.I.I.P.P.I.L.K.I.I.I.{.hXhXhXzXaX*X*XP.p.P.p.) s A A s s c c Q C Q C b c 0 c ) 3.P.#X=X#X#X=X$X&X&X$X$X$X$X$X$X$X$X$X$X&X&X&X",
"K.I.I.I.P.P.I.I.I.I.I.I.+XhXhXhXyX3.:.' ) ) s C b 0 0 0 p p 0 s C f s f s 0 6 0 0 ! ' ;.%X-X+X#X$X&X&X$X$X$X$X$X$X&X&X$X$X$X$X$X",
"K.I.I.I.I.I.I.I.I.I.I.I.#XhXjXaXU.) ` C c ! b C p s s C f p s p p p p p p 4 p 3 0 C s w #. XyX=X&X&X$X$X$X$X$X$X$X$X$X$X$X$X&X&X",
"L.I.I.I.L.I.I.I.K.I.I.{.oXaXI.4.;.Q C C b C C 0 s s 0 s W W E p p & 3 p p 3 2 2 2 4 p q w 4.%X%X&X&X$X$X$X$X$X$X$X$X$X$X$X$X&X&X",
"K.L.I.I.P.P.L.I.K.I.{.P.oXi.K ) ! C s 6 s C W W V p W { W f f p 0 4 4 e 4 3 2 2 3 p < 0 0 S p.u.0.=X+X=X$X$X$X$X&X$X$X$X$X&X&X%X",
"K.L.I.I.L.L.I.I.I.I.oXP.4.#.H A 0 C b 6 0 C W f g p E ^ E g g 3 9 < , , , : 1 2 e p 4 4 4 < C c #.yXpX+X&X=X@X&X&X$X$X$X&X&X&X&X",
"K.K.L.I.I.I.I.I.P.P.K.0.' A Z 0 s s p s ! ^ V p 4 4 p f g p 4 % & : & : , : : 4 e 4 p 4 3 4 6 0 i.P.%X%X&X$X&X&X&X&X&X&X$X&X&X&X",
"K.K.L.I.I.I.I.I.K.{.P.0.] S c C C f C ` ^ s , 4 % : 3 4 4 4 , % o & % % : : : 4 u e p 4 4 4 3 s 4.oXuX%XyX&X$X+X$X$X$X$X$X$X$X%X",
"P.P.I.I.I.I.I.L.oX0.3.#.) C p C ^ { { ^ f 3 : : : : , , , , , : 3 4 , & : : , 4 3 p 4 p t 2 > 6 A OXuXyX%X&XpX&X$X$X&X&X$X$X$X$X",
"P.I.I.I.I.I.L.P.oX#.4.4.! s f { { ^ f p p 0 3 , , 3 3 3 , , , 2 e p 3 , < : : , : 3 , 4 4 2 2 6 < S ' %XyX%XyX#X$X&X&X&X&X&X$X$X",
"K.P.I.I.I.I.I.L.I.#.' ' Q f f W f p 3 , 3 3 4 t 4 t g t 4 t t 4 4 2 , : : & o o : < & > > > > > , 9 O w P.%X&X=X&X&X&X&X&X&X&X&X",
"K.P.I.I.I.I.I.I.~.p.;.C b b f f f s p 4 p p p t 6 a b a a m b t d t 2 : ; : , : , , : < 4 p 4 4 , * < S P.%X=X#X$X&X&X&X&X&X&X&X",
"K.K.L.L.L.I.P.q.;.;.' Q C a s s s s f p p f a a q F .._ v x n x b 0 < : , u u 4 4 3 : : 6 p 6 4 < , < b p.yX&X#X&X&X&X&X&X&X$X$X",
"P.K.K.L.I.I.H.0.' w s ) { b f s s s p p p f b Z _ @.z.S.@.M v m q a 6 : : 1 3 4 4 > & : 6 p p p 4 4 3 0 ;.%X#X&X$X&X$X&X&X&X$X$X",
"K.K.L.I.I.I.I.P.;.5 c } { C b b b C s 4 4 a Q ..*.=.l.Y.W.J.1.M v F 7 5 6 4 e 4 t 4 : : 4 4 3 3 u 4 o @ A oX%X&X$X$X&X$X$X$X$X$X",
"K.K.I.{.I.I.I.P.) < ! } Q C ! ! Q { Q 6 > 7 ( ,.<.n.T.T._.;XY.O.,.@.m 7 6 6 d t 4 6 > & , 4 3 , 3 , & & ! %X%X#X&X&X&X$X$X$X$X$X",
"L.K.L.L.I.P.0.' C s ! Q C ! ) Q ) { Q a 6 l ..c.T.`.,X,X`.(.(.T.W.S.@.N 8 5 b a 6 a 7 > > 4 4 3 3 3 & & c p.%X&X&X&X&X&X$X$X$X&X",
"K.L.L.K.K.i.;.Z C b Q b C Q Q / Q C x n m v ,.Y.`.`.'.<X<X'.:X6X3X].E.9.( n / m 6 a 7 > 2 e u 3 3 , : @ * ] oX=X&X&X&X$X$X$X$X$X",
"H.H.I.P.H.0.;.) s s f f Q C Q / Z n x F N L v._.(.,X<X<X,X'.<X6X6X].Q.E.9.:...n x x 7 > 2 e u u ; : 4 0 w H +X#X&X&X&X&X$X$X$X$X",
"H.H.K.I.K.0.' A C s f Q { Q n x F G G  .D %.R.).`.<X,X<X<X<X5X5X9X3X].E.A.8.+..._ / x 6 > > 2 3 , o > s w S &X=X&X&X&X&X&X$X$X&X",
"H.L.L.K.P.}.4.c W f W { } ` x x J  .O.*.b.R.1X4X5X<X5X0X5X5X5X5X4XY.k.X. .@._ +.+.+./ 7 > > h - ; , < s < 3.aX#X&X&X&X&X&X&X&X$X",
"H.H.L.I.{.oX4.c ! C W Q ! ` C ( 7.k.M.3X9X1X1X4X4X,X5X5X4X5X5XT.l.-.D z M M  . .+.+...n > O o - o , 4 > . p.aX=X&X&X&X&X&X&X&X$X",
"K.K.K.K.I.oXi.;.b Q { W s a a G v._.9X1X;X>Xn.-.j.j.m.).5X5X:Xn.=.-.P X.@.@.6.6.,.,.,.>.7 X @ : : : & X O i.aX+X&X&X&X&X&X&X&X$X",
"K.K.K.K.K.I.~.^.4.} ` s 7 6 5 v v.1X9X>Xj.Y B z P -.-.l.:X4X).B.k.*.&.*.,.A.9.6.9.9.1.,.F * @ : o , : > s 0.P.yX=X&X&X&X$X$X$X$X",
"K.K.I.K.K.P.I.~.p.;.Q q 6 5 @ M n.4X4Xn.-.Y Y b.b.v.n.n.;X9X,XT.v.<.&.,.9.c.9.<.*.9.7.9.:.m > > : u 6 < A ' w oX&X&X&X$X$X$X%X$X",
"P.P.K.K.I.I.P.I.8.` C c 7 > # _ R.:XB.j.n.R.R.M.k.=.Y.3X9XxX5X).n.&.&.z.c.$ j z X.<.9.9.y._ 6 < , 2 d & c S H &X$X$X$X$X$X$X&X%X",
"P.{.K.K.I.I.L.I.U.] x b a a > @.3X:XT.;X;XY.k.z z D &.3XsX5X<XC.h.1.<././.l N &.&.*.9.9.q.+.q < , 4 W O # * #.#X$X$X$X$X$X$X%X$X",
"K.{.}.K.I.L.L.I.U.' n / b m @ +.6XqX5X).j.j.k.$ j -.%.n.sX6X`.m.x.F.g.<.S.A.z.S.v.k.S.c.q.:.v q 7 f d X O A H {.$X$X$X$X$X$X$X#X",
"P.P.P.K.K.K.H.K.I.i.} d d a 8 9.xXvXqXC.`.;X_.v.b.d.m.`.6XxX_.F.S.x.z.=.<.v.v.v.Y.Y.Y.S.A.,.F q x b f o 0 A J J.&X&X%X$X$X$X$X$X",
"U.P.P.K.}.K.L.L.oXu.Q 4 t q F J.bXvXwX0XxX9X1XT.d.V.m.,XxX9X_.E.S.x.S.S.F.F.Y.].Q.Y.Y.S.E.y.G k _ :.a : 4 w $.XX$X%X#X%X%X$X$X$X",
"H.K.K.K.K.K.K.L.w.) 0 4 c v J ;XbXvXeXwXwX,X).B.(.C.'.0XvXcX6XG.F.F.E.E.E.W.W._._.Q.W.Y.E.A.( l :.>.X o 6 H I.$X$X$X%X$X$X$X$X$X",
"H.K.K.K.K.H.H.K.3.) C a Q 8.N R.bXbXvXeX0X,X,X,X,X,XcXvXbXxX[.W.W.F.E.W.Q.]._._._.Q.Q.Y.E.H._ F 8.F O 4 C P.7XXX$X$X&X&X$X$X$X$X",
"K.K.K.K.K.H.L.K.0.) C * * ~.%.f.bXvXeXeXwX5X5X<X5XwXcXvXBXxX[.6XW.v.F.W.].[.[.3X_.Q.Q.Y.E.J..._ A.m O o * 0.$XXX$X$X&X$X$X.X$X$X",
"K.K.K.K.L.L.L.L.P.5.] s # @X_.f.bXvXrXvXeXwX0X0XwXwX0XMXZXxX6X3X].W.W.v.x.W.3X[._._.Q.W.!.I. .+.u.c O & * 0.$X.X$X$X#X$X$X.X$X$X",
"K.K.K.P.L.L.L.K.oXp.4.) = E.4XV.wXvXvXMXvXeXwXwX<X<XvXBXBXxXxX3XW.E.E.z.<.F._._._._.Q.Y.J.U. .:.I.] X % c i.|..X$X$X#X+X$X.X$X+X",
"K.K.I.I.L.L.L.P.}.oXt.Z = !.5Xm.0XNXNXMXMXvXwX5Xm.Z.wX'.5XxX_.W.<.P &.c.z.g.x.W._._.Q.Y.S.J.$.A.~.;.o < 5.%X|.$X&X$X#X+X+X|.|.|.",
"L.L.I.I.I.L.L.L.{.P.^.3.k J.bX`.,XvXMXMXMXeX0XZ.f.(.m.V.(._.v.&. . .O.,.9.x.v.z.G.Q.n.v.S.7. .A.~./ X : } yX&X$X$X$X#X#X@X$X+X|.",
"H.L.I.I.I.I.I.I.P.oXP.p.$.7.mXqX(.bXcXeXvX0X'.f.m.(.m.l.n.l.=.X.G J D G  .&.<.k.k.v.v.v.k.&.L 9.:.. O o < P.$X2X@X+X#X#X@X$X+X+X",
"L.L.I.I.I.I.I.I.I.{.i.i.q.&.;XmX4XxXvXeXwX,Xm.n.G.d.I I Y P L X.G M N D D D L X.<.=.k.b.*.O.L ,.F   o : . H &X$X$X$X#X#X#X+X+X+X",
"L.L.I.I.I.I.L.L.L.P.I.P.I.H.U R.6X4XxXxX0X`.m.n.%.I I -.-.I L L  .D ( X.G M M L &.&.<.<.O.O. .8.+.# X o # w $X.X$X%X%X%X@X+X+X+X",
"N.L.P.P.P.P.L.L.L.I.oX+XP.U.P $ P 1XxXwX5XC.B.d.N %.k.x.l.l.x.=.<.&.,.,. .N D  .L @.&. .P  . .u.9.# > & & l q.$X$X$X#X$X@X$X@X$X",
"N.N.K.P.P.P.L.L.L.L.I.I.~.I.I.U $ 2.sXxX5X).T.I z P =.n.G.n.h.-.o.&.&. .N G _ G  . .G G  .@.( 8.y.* : O # #.L.XX$X$X#X$X$X$X$X+X",
"N.N.K.P.P.P.L.L.!.!.+XI.*XP.K.I. .D XX9X4X:XB.P L L I d.h.o.o.I o.1.1.=.1.9.9.,...G v F  .+.G 8.U.w . , S P.pXXX$X$X#X$X$X.X|. X",
"N.L.K.K.P.P.K.L.J.I.L.+XoX+XoX{.I.*.M.>X>Xb.b.*.U v._.:X[.(.G.G.G.F.S.S.S.S.y.,.G v v F G F ( U.y.( ! OXOXoX X$X$X$X$X$X$X$X$X$X",
"L.L.L.K.K.K.L.L.L.I.I.{.|.+X+X|.+XL.b.;XM.%.b.=.=.R.4X9X5X(.G.G.h.x.v.v.x.z.9...x a b Q / 7 +.A.y.@.5 S 0.oX=X-X X$X.X@X2X@X@X@X",
"K.K.K.K.L.K.L.L.L.I.I.{.|.|.|.|.I.|.7.Y.Y.2.O.7.*.R.:X>XC.B.l.I o.=.g.<.z.z.8.F a m b a 7 x 1.A.y.y.8   * ' }.=X-X+X&X@X@X2X2X&X",
"K.K.K.K.L.K.K.L.L.I.I.|.|.+X|.|.+XL..X2.7.J.*.*.b.v.).,XB.j.d.I o.o.=.g.A.9.+.n 7 a b a 6 Z y.A.9.u._ # + * 0.%XyX$X+X$X&X$X$X@X",
"K.K.K.K.L.K.K.K.L.I.I.|.|.+X|.|.{. XXX!.U <.9.*.&.2.T.4X4X).B.=.=.=.<.<.A.,.( x 6 t p a q ( 9.D.y.9.:.F     t.OXuXaX&X=X8X$X$X$X",
"K.H.K.K.L.K.K.K.L.I.I.|.|.|.|.|. X|.XX.XM.L @.9.,.*.k._.4X1XQ.v.z.z.z.,.,.+.Z 7 7 p 6 q Z +.9.A.D.D.>.` 5 & t.OXt.OXyXyX+X+X&X$X",
"H.K.K.K.K.K.K.L.I.I.I.|.|.|.|.{. X|.XX$XXX@X@.9.9.*.%.v.R.M.M.J.c.9.9.@.+.` b y : 6 a m +.9.z.c.z.1.+.>.a 0 a.a.` ) OXpX%X&X+X X",
"K.K.K.K.K.K.L.L.L.I.I.{.|.|.|.{.}. XXX!..X2X+X6.$. .O.2.b.v.H.6.9.@.:.+.( n a 6 O > c / 8.9.z.z.S.,.+.+.p W a.a.^ s ' ^.uXyX+X#X",
"K.K.K.K.K.K.L.L.L.L.I.I.|.|.|.{.{.|.|.$X{.@X+X%XH.J z %.%.*.6.:.@. .+.F c x 6 o > > F +.9.7.x.x.g.<.O./ W t.a.s.g W < A ^.%X-X-X",
"K.K.K.K.K.K.L.L.I.L.I.{.|.|.|.+X+X+X|..X X|.+X{.pX{.J j D @.G ( _ F v x 6 > > * 7 / +.1.z.x.l.x.k.&.@.Z Q a.tX[ T T : s ;.4.p.OX",
"K.K.K.K.K.K.L.K.L.L.I.{.|.|.|.+X+X+X+X|.|. X X X=XlX$X$.z l k 8 l l q 5 # # 6 x ( +.,.<.x.x.h.l.l.,._ n t.a.s.E T 1 e { W t.p.p.",
"K.K.L.K.K.K.L.K.L.L.L.{.|.|.|.oX*X*X+X|. X X}.-X}.K.aX2XJ.O.M k = = 8 8 8 x ( +.:.,.<.g.x.l.h.x.=.q.( ' a.a.e.i T 1 T ~ ~ s.a.uX",
"K.K.K.K.K.K.L.L.L.L.L.I.|.|.|.+X+XoX#X X X X}.gXK l dX2X3XfX/.@.J J J H ( +.@.:.*.<.g.k.l.l.l.x.9.:.' p.a.s.[ i i 1 T [ t.T ~ t.",
"H.K.K.K.H.K.L.I.I.L.I.I.|.|.{.|.+XI.+X|. X{.oXlXA   U.dX3X3X3X@Xc.9.6.:.@.@.*.*.=.d.l.l.l.l.x.c.A./ 4.p.t.} i T r g [ } | r T ~ ",
"H.K.K.K.K.K.L.I.I.L.I.I.|.|.{.|.+X+X+X|.|.{.OXlXS   J dX9X1X4X;XY.c.7.7.,.,.7.k.j.j.l.b.l.x.v.z._ >.p.p.t.T i i : ~ ~ [ r ; i T ",
"H.K.I.L.L.L.L.I.I.L.I.{.|.|.|.|.|.|.|.|.+X#XuXiXs # = Y.9X4X9X1XR.v.k.7.7.<.=.d.j.j.l.l.l.v.z.:./ ^.a.t.| e T 3 f ^ | e.T r - r ",
"H.L.}.}.I.L.L.L.L.L.I.{.|.|.|.|.I.|.|.|.{.-XiXiXs > = %.sX9X,X>XT.l.g.g.<.=.d.l.l.j.l.b.b.v.<.G p.^.t.t.g i u 1 | ~ e.W ~ ~ ~ T "
};
