/* XPM */
static char *a1d78ae406064b73d572d3d3316dddf379HNRdxhWXz6CNgP[] = {
/* columns rows colors chars-per-pixel */
"64 64 199 2 ",
"   c #446787",
".  c #4C6F8F",
"X  c #58708A",
"o  c #4D7397",
"O  c #4E759A",
"+  c #5A7694",
"@  c #5B7996",
"#  c #52779B",
"$  c #54799E",
"%  c #5C7B9D",
"&  c #557493",
"*  c #607796",
"=  c #617D9C",
"-  c #657E94",
";  c #5677A0",
":  c #557DA3",
">  c #5C7DA3",
",  c #647FA3",
"<  c #697FA7",
"1  c #5E839E",
"2  c #64819E",
"3  c #69819D",
"4  c #5781A7",
"5  c #5D81A5",
"6  c #5D84AB",
"7  c #5C87B2",
"8  c #5E89B3",
"9  c #6383A4",
"0  c #6A85A4",
"q  c #6C89A6",
"w  c #6385AB",
"e  c #6B85AB",
"r  c #6589AD",
"t  c #6C8BAC",
"y  c #7B8FA7",
"u  c #738DAC",
"i  c #798EAD",
"p  c #7484A5",
"a  c #7591AE",
"s  c #7C93AE",
"d  c #7E98AF",
"f  c #6386B1",
"g  c #658BB3",
"h  c #6B8DB2",
"j  c #658DB9",
"k  c #698BB9",
"l  c #728DB2",
"z  c #798EB1",
"x  c #758CBB",
"c  c #6690B6",
"v  c #6D91B5",
"b  c #6691BC",
"n  c #6D93BB",
"m  c #7493B4",
"M  c #7A94B4",
"N  c #7798B7",
"B  c #7D99B6",
"V  c #7395BA",
"C  c #7B96BA",
"Z  c #7599BC",
"A  c #7C9BBC",
"S  c #7EA0BC",
"D  c #7295C2",
"F  c #769AC1",
"G  c #7B9CC2",
"H  c #7D9EC9",
"J  c #7EA1C4",
"K  c #7FA0CB",
"L  c #8397AF",
"P  c #8196B6",
"I  c #829BB5",
"U  c #8A9EB6",
"Y  c #8196BA",
"T  c #839CBB",
"R  c #899EBC",
"E  c #86A1B6",
"W  c #8CA0B7",
"Q  c #85A1BD",
"!  c #8BA3BD",
"~  c #8FA9BF",
"^  c #93A9B7",
"/  c #92A6BC",
"(  c #94AABD",
")  c #9DADBD",
"_  c #839DC1",
"`  c #8D9FC0",
"'  c #84A3C3",
"]  c #8BA5C3",
"[  c #87A8C7",
"{  c #8DA8C5",
"}  c #84A5CA",
"|  c #8AA5C9",
" . c #87A9CA",
".. c #8CABCB",
"X. c #92A5C3",
"o. c #93ABC5",
"O. c #9AADC5",
"+. c #93A7C9",
"@. c #93ADCB",
"#. c #9AAEC9",
"$. c #97B0C6",
"%. c #9CB2C5",
"&. c #95B1CD",
"*. c #9CB2CC",
"=. c #9FB9CB",
"-. c #86ADD2",
";. c #8DAED0",
":. c #82A4D1",
">. c #93AED2",
",. c #98AFD4",
"<. c #8EB2D4",
"1. c #95B2D2",
"2. c #9CB5D2",
"3. c #9EB9D5",
"4. c #94B5D8",
"5. c #9CBBD9",
"6. c #A2B4C5",
"7. c #A2BAC4",
"8. c #ACBDC5",
"9. c #A2B5CD",
"0. c #A4B9CD",
"q. c #ABBCCD",
"w. c #B1BECE",
"e. c #A2B6D2",
"r. c #A4BAD4",
"t. c #AABDD4",
"y. c #A0B7D9",
"u. c #A5BDDA",
"i. c #AABED9",
"p. c #B6BED1",
"a. c #A5C0CB",
"s. c #AAC3CC",
"d. c #B1C3CD",
"f. c #BAC1CB",
"g. c #ACC2D5",
"h. c #A5C1DB",
"j. c #ACC2DB",
"k. c #B3C4D5",
"l. c #B9C6D5",
"z. c #B4CAD7",
"x. c #BCC9D6",
"c. c #B2C4DB",
"v. c #B9C6DA",
"b. c #B5CADD",
"n. c #BACBDC",
"m. c #BCD1DE",
"M. c #9EC3E0",
"N. c #A7C6E5",
"B. c #ADC5E2",
"V. c #ACCEE7",
"C. c #B4C7E3",
"Z. c #B8C7E3",
"A. c #B4CAE2",
"S. c #BACCE1",
"D. c #BDCEE2",
"F. c #BDCEE6",
"G. c #BACDE2",
"H. c #BACDE9",
"J. c #BFD1E2",
"K. c #BED1E5",
"L. c #BED2E3",
"P. c #BDD2EA",
"I. c #C1CBD7",
"U. c #C1CCDE",
"Y. c #C1D2DE",
"T. c #C0CEE3",
"R. c #C1D0E3",
"E. c #C0D2E0",
"W. c #C2D4E2",
"Q. c #C0D1E5",
"!. c #C2D3E6",
"~. c #C3D5E6",
"^. c #C5D7E5",
"/. c #C3D3E4",
"(. c #C9D3E5",
"). c #C6D8E6",
"_. c #C8D9E3",
"`. c #C1D1EA",
"'. c #C2D4E8",
"]. c #C5D6E9",
"[. c #C3D5EA",
"{. c #CAD6EA",
"}. c #C7DAEB",
"|. c #C7D8EC",
" X c #C7D9EB",
".X c #C9DAEA",
"XX c #C8D9ED",
"oX c #CADBEE",
"OX c #CCDFED",
"+X c #C9DBED",
"@X c #C7DBF3",
"#X c #CEDFF2",
"$X c #C9DBF1",
"%X c #CFE1EF",
"&X c #CFE0F4",
"*X c #D5E7F7",
"=X c #D1E3F2",
"-X c #D8EAF8",
";X c #D3E5FB",
/* pixels */
"I B I ! { ] { o.1.@.@.@.@.&.@.@.@.1.@.*.C.u.o.*.@.=.r.r.2.2.u.B.t.r.r.t.j.j.c.c.A.c.A.K.K.b.b.W.G.'.'.G./.#X&X+XS.c.c.c.i.2.2.u.",
"B B I ] { ] ] o.{ o.@.1.2.1.@.{ @.#.{ @.j.u.o.=.r.r.u.r.2.2.r.u.j.j.i.i.j.j.j.j.c.j.A.P./.G.n./.J.'.'.G.J.+X#X.XG.c.r.t.j.u.u.u.",
"M B T ] ] Q Q { ] ] @.1.2.1.@.{ @.@.{ o.u.e.=.u.2.2.2.2.r.r.u.u.t.t.t.u.t.t.j.j.j.j.A.P.[./.W.(.W.).^.m.W.OX=X%X}.v.0.0.g.j.u.u.",
"u M I ] Q B T Q { ] ] { o.@.*.*.@.@.@.*.u.u.u.j.2.2.2.2.r.r.r.r.e.r.r.r.r.i.j.j.u.j.A.K.K././.'.^..X).W.).=X-X-X*X~.k.t.g.j.g.u.",
"u M I ' T B B T ] ] ! Q ] { @.2.@.@.2.i.j.j.j.j.B.h.u.u.r.2.@.o.r.r.u.u.r.r.u.h.r.j.A.G.G.G.~.|..X.X.X.X.X=X*X*X*XOXJ.z.g.j.j.j.",
"M M T ' T B B T T T ] { { { @.@.@.@.y.C.j.t.j.u.h.B.B.B.h.r.*.@.1.2.2.1.@.@.@.&.e.j.G.G.G.K.~.'.'.'.[.+X+X+X+X|.}.}.[.b.j.j.j.B.",
"M M M T T C C B M T ] o.o.{ { { @.{ y.C.r.e.u.=.2.u.B.B.h.r.2.2.@.@.@.o.] T Q ] 9.b.[.[./././.W.c.b.S.`.`.F.S.S.S.K.F.c.t.u.u.r.",
"m l l M M M m M B I ] ] ] ] { { @.] 2.j.*.*.e.*.*.u.B.B.u.*.@.o.@.@.&.@.] Q ] { 9.A.@X$X|.'./.n.#.9.i.Z.H.Z.c.c.c.S.A.i.y.2.1.@.",
"w t m N M M B T T I Q ] { ] ' T ! e.u.2.@.1.2.1.r.2.r.h.h.r.*.@.@.@.{ { { { { { O.$X;X[.P.B.2.u.2.o.o.u.G.A.c.C.K.G.j.u.2.@.@.@.",
"N t t N ' ' T T B I T ] ] ' ' T o.e.u.2.@.&.5.5.u.r.r.u.h.r.*.@.@.@.@.@.o.{ { o.r.'.`.j.i.2.*.B.u.e.u.A.P.S.c.A.C.j.u.2.@.@.....",
"A t t A ' T B T ] { @.@.@.@.@.{ #.r.u.*.o.@.5.5.r.2.2.u.u.r.*.*.@.@.@.{ ] { @.2.b.G.i.*.#.o.*.C.b.b.G.[.P.c.c.A.j.u.5.&...| } } ",
"t q N ' B e t _ A T ' ] { { { { #.e.r.&.{ @.1.5.*.@.*.r.u.y.r.u.*.@.o.! ! @.u.B.C.i.9.9.=.#.r.H.G.G.'.[.b.r.r.j.h.u.5.>...} H G ",
"q q M T C 9 9 h m A Q ' ] { o.o.#.*.*.@.o.@.@.@.@.@.*.2.y.y.u.B.i.r.e.*.*.r.j.C.i.*.=.j.j.t.c.P.G.J./.b.t.*.*.r.h.h.5.4.;.} H F ",
"T M M A _ V w $ h m A ' ] ] #.*.*.#.@.o.{ { ] ' *.@.*.2.2.2.u.h.C.c.c.C.A.A.j.i.*.o.r.H.G.b.S.G.G.b.g.e.&.@.&.5.j.h.h.5.4...' G ",
"*.o.Q I ' ' h ; $ 9 h N I Q X.O.j.=.o.] ] ] Q B @.o.@.*.*.*.r.h.c.j.t.j.A.A.i.*.2.@.h.P.A.S./.S.b.t.o.! Q [ ;.<.r.u.j.h.u.2.{ ' ",
"=.r.2.' A G V w w v A ' @.*.t.c.H.r.] Q ] ] A M ] ] X.@.@.*.r.B.t.*.X.X.e.t.r.*.u.2.C.P.c.b.'.S.j.*.T a N ' -.-.%.0.j.j.h.y.1...",
") q.q.O.! T C h i ] u.i.r.9.t.k.A.*.I B ' ] T I Q ! T T { { o.e.,.| z ] B.*.! u.O.b.+X/.k.k.U.(.u.' h x G G J ..@.*.u.B.B.B.y.2.",
") 0.r.9.*.2.2.+.X.*.t.i.e.9.e.t.c.o.M M ' ] ! T I ! T _ @.o.o.e.@.| @.1.*.*.*.@.%.b.+X~.b.n.(.(.&.B h l V V G } @.&.3.u.u.3.2.&.",
"%.t.k.t.t.c.k.r.c.i.t.r.e.e.e.e.t.! a m ' @.@.X.I ! T ] @.@.@.3.o.o.B.u.T X.2.I 0.G.|./.G.T./.T.] B V V h h V J @.@.&.1.1.@...{ ",
"#.9.r.r.t.k.l.p.v.k.q.9.*.*.*.@.r.! M m T @.2.u.Q T T _ ,.1.@.=.0.g.C.r.I ] @.T g.G.[.K.F.K.F.c.] ] ' A h h v G  . . .| | } ' ' ",
"] o.o.%.0.k.l.l.k.k.t.9.O.o.o.o.9.! M m M ] y.C.] Q M T ,.2.@.*.z.b.=.] @.{ ] 2.k.n.K.G.G.P.C.i.| { | A h h D G ' J G G G J ' ' ",
"{ { X.X.O.9.t.g.v.S.G.b.t.9.*.=.0.! M u m T @.u.] _ M C | @.@.2.m.g.I P y.2.o.S.k.G.K.G.G.H.B.2.Z ' ' A m Z H H V V V Z Z F G G ",
"@.{ R T ] o.*.2.j.A.G.G.b.v.v.v.j.o.B m M T ! ] T _ C x C C ] r.L.*.B _ y.j.g.z.n.~./.b.j.u.&.Q h A A N A } } D h h n n n n n n ",
"] I B B T  .1.5.*.e.t.j.v.n.U.Y.G.*.I A T _ I s B _ C l e e T u.P.! I +.,.b.L.7.~.}.[.c.e.@.B 0 h Z ' A ' ..K k r g g v n h g g ",
"0 B u 0 T { R y.0.0.t.g.g.c.S.G._.^ d M w h T z r w w ' m B T B.] 1.@.I 9.+X^.6.8.m.[.j.&.' h $ 5 Z ' Y T ] A 1 7 7 7 8 j b b b ",
"0 B m u { @.] 2.*.9.r.t.t.j.c.c.x.b.I & w l < 0 5 w w A M T @.C.1.&.{ o.r./.Y.w.^.b.c.u.] t 5 g 5 V G C T ' ' m g g 6 6 6 g g g ",
"q B M M @.@.] @.*.9.r.r.r.r.t.j.q.P.o.+ = t 0 e 5 w t q M Q 2.u.2.] I o.g.v.v.v.G.t.#.] m > w D 6 v G G G J J J v h w w h V G J ",
"u B M M ] { R R *.*.*.*.O.O.*.9.0.=.u.{ @ = M l w w m = M I 2.@.*.! Q =.j.c.k.v.*.2.{ l , w k n g j n F V v v Z m m M T { 4.5.u.",
"u M M M T T R ` @.@.o.] Q T ! o.e.Q *.u.M = e t r w t % M T @.R *.=.e.j.b.b.c.t.] { ] m w g k k n j g g 6 6 r V T T { 2.h.B.B.B.",
"a M B B B T +.@.o.*.*.o.! ! ] o.u.2.! *.j.I + t r > % 9 B T ] T o.r.c.c.c.c.r.X.I t t A G g g F G h 5 : 4 r N } { @.&.3.u.u.y.2.",
"m B ] T M T +.@.] &.3.3.*.@.@.&.1.u.o./ j.3.m h v # . l T I B ] / *.j.c.j.t.=.o.{ a t A ' v v J G V h r v J ..@.@.@.@.@.1.1.&.@.",
"B T @.] M M ] ] B ] 2.r.2.@.o.o.A { e./ L r.N.v V #   A ' T u ] W O.r.A.A.j.e.=.V.5.{ A A A A m C A A A ..5.2.@.1...] ] { 1.5.5.",
"e.*.#.O.#.O.O./ e.*.o.o.&.*.*.@./ R I @.1.X.r.v.O.p y.T , T u s ] =.g.0.q.G.`.Z.r.*.o.o.&.&.@.] ] @.5.1.G v V J &.@.@.@.@.@.,.2.",
"C.C.c.c.b.b.v.k.b.j.r.r.0.*.o.T *.X.i B M i *.Z.O.P 2._ l { T ! &.e.0.%.6.c.S.i.{ ! I Q { @.o.] ..@.1...A h V J ] @.&.&.{ ..1.4.",
"r.t.g.b.J.~.^.^.W.J.J.G.n.c.9.O.e.o.i t 9 = R r.9.*.R B T @.@.9.o.=.*.%.6.g.t.#.T T B T { @.@.{ 1... .' V h h Z B { 1...} ..>.>.",
"O.%.0.g.k.n.m.Y.Y.Y.W.W.^.T.v.k.#.@.T _ v % m T b.c.3 0 Q 1.2.e.I o.0.t.g.j.*.R ' Q ] { &.1.@.{ 1.] Q A m h h v A '  .J G } -.} ",
"t.g.g.c.v.x.m.Y._.Y.n.l.l.k.k.k.9.e.@.{ N 9 m B v.b.X 0 @.y.@.o.I $.g.j.u.=.{ T Q ' { @.2.1.@.] 1.] A A A V v v G G Z v n H H V ",
"t.g.j.c.v.G.^..X_.Y.n.k.k.v.v.v.k.k.o.{ N q A ] q.k.- I 2.u.! R X.e.g.0.o.! T G B B _ { @.@.@.{ 1. .Q _ J G Z Z G v r r g n n j ",
"#.*.9.9.r.c.G.'.J.J.J.m.n.b.b.S.x.x.6.*.] B { o.7.k.I *.] { u I e.r.*.~ I N A G C C A _ | { @.@.1.] B A A G G J V r 5 g g g f j ",
"y.e.9.*.O.9.r.k.J.L.[.~.L.b.g.r.f.I.k.b.h.o.@.! 8.m.*.h.u a * I 0.*.o.E B N A G ' _ T T _ | >.1...T m m m Z G J c 4 : g j 6 6 b ",
"*.O.O.*.*.*.9.t.b.t.r.v.T.n.k.q.k.v.v.k.k.g.6.^ r.n.z.g._ e P / 3.{ M u M A T C T C A A m T @.1.Q &.1.Q V G D f n g 6 : 6 v V V ",
"X.X.#.9.e.9.9.r.t.r.0.c.b.v.v.v.J.n.v.k.n.G.k.6.c.K.k.0.I e R =.1.Q a u m B B C _ C A A v N ] { I @.5.;.A h v F n v r 4 6 n Z G ",
"/ / X.*.*.*.*.e.r.9.r.i.c.k.v.T.G.k.6.6.g.b.c.6.F.~.d.6.P < ] h.@.T i q l C A C M l N N m N { { A C ' 1.4.} N m v v w 5 6 v Z G ",
"X.! R Q ! ! #.e.e.9.r.t.k.k.v.b.k.6./ ^ %.t.t.0.G.J.d.0.I < T *.' A m l l V G _ C C A ' A ' &.&.G h t A ;.4...' v v g 6 r n G G ",
"o.! T T T T o.*.*.*.=.r.c.b.b.v.c.q.O.O.%.r.c.b.k.v.d.k.X.< l B m M N l e e V _ >.......' ' &.@.} _ m 9 w N 1.M.J J G V m Z G G ",
"] ] ] { { ] ] o.] o.o.*.j.S.S.c.i.r.9.O.O.9.t.S.k.l.d.n.2.e < 2 9 t v t > > h G | _ ' ' A Q @.@.>...A q w v J J .... .J Z Z Z V ",
"Q Q ] o.o.] ] { T ] o.o.9.i.c.c.r.9.*.*.O.O.9.j.U.l.8.n.y.l 9 % 9 w w 9 > > w h M l N N v A ..@.&.] A A A V h w '  ...' J A A N ",
"Q T T Q Q Q { @.T { @.X.X.*.t.j.j.t.e.r.e.9.e.j.{.x.8.v.y.x w 9 9 w 9 > > > w g T C A A m A ..@.o.] ' ' h ; f :.A } .... . .' ' ",
"T T T ] ] { { { ! E Q { &.*.*.e.r.@.j.i.*.9.t.[.Y.z.r.( g.I u x h w $ # > w l C ~ o.A h m G ' ..2.] T A A V V F m G [  .{ { @.1.",
"T T T ] ] ] Q T ! E I Q ! { o.*.o.o.j.u.#.9.9.c.s.0.9.%.b.( B x V r > # # w m G ! ] N t v A J ..@.' '  .} Z h r N J  .......&.2.",
"T T T T T T I T ! I B I I ! @.e.! ] r.=.O.9.9.c.0.O.#.*.W.7.! C Z v w > 9 h V G I Q m w v N A ' ' ' '  .} G v h Z J  .....@.&.1.",
"B B T T T T T T Q B B I I ! @.r.] ! @.#.*.9.9.[.g.o.+.#.L.s.%.T m m v m C C C C B T v w h V V _ ' A A A G G ' ' Z G '  .....@.&.",
"T T B B B T T T Q A T T T T ] @.@.T ] #.r.O.O.$Xi.R X.O.m.s.=.T t t l m B T T T B I v w g h h C A A V v m _ ..1.G G J ' { ..@.@.",
"T T T B B M B B T B M T T P P P ] T ] *.t.O.U G.9.P ` *.m.s.=.B t q e q m C T _ I T m w g g t l h V V v m A ] { J G A A ' ..@.@.",
"T T T B B M a i A m u M B B M i I ] o.X.e.9.W c.k.U X.*.z.a.e.C q 0 0 q l Y _ ] T ' V w f w w t > r v h m B T T J A N V T { { ..",
"i M B T B M i u A t 0 u C T Y M M @.o.s O.t.*.G.OXO.#.*.s.7.u._ 0 q u M T T T T Q ] Z w f w 9 w $ 5 r t t M T I J N v h N ' ] { ",
"M B B M a a m M T u 0 q M B M m M _ 2.r.O./ 6.v.0.9.O./ O.0.0.( 0 t M B T ! ! Q Q ] J g 6 w w , v h h V G G G G G Z V V Z G } } ",
"M i i q 0 0 q t B u q i M M M M M C ] *.9.*.0.g.*.O./ W / X.O.( t m B Q ] @.*.=.0.o.S n g 6 h Z v g r m Z G G _ Z V v m V G G G ",
"M i 0 = = = 2 2 a u u a M M M M M i i ! *.e.9.O.o./ W W W W W X.t m M I { @.=.e.k.9.] m w 6 h F 5 > 5 w h h l V V v h v V Z Z Z ",
"M u 0 2 2 9 2 2 q 0 0 u M m i i M u 0 a ! o.! I O.! U ! W I Q X.m t u M I ] o.*.6.q.*.M 5 5 7 7 # O $ 5 w 9 w e V v h h h v V V ",
"u u 0 0 0 0 2 = u 0 2 u M M i q a u q q u M I I o.T I Q ! Q Q X.A m u m B T Q ] ( O.*.o.m % O : # $ 5 h t w w e V h w 5 5 w t h ",
"0 0 0 9 9 9 2 = u 2 = q M M i q q t q 0 9 u P T Q B s I Q Q Q Q G m t m M M M I o.R X.j.2.q # 6 # : r v h w e h V h 9 $ $ > 9 w ",
"0 0 0 = = % = 2 0 = % 9 u u q 0 9 q q 9 9 u M B u s M B I T T I A t 9 t m i i B ] T R *.r.{ a w o $ w h r w t V G V r 5 > > 5 5 ",
"0 0 0 = @ @ = 0 = + + = 2 2 2 0 2 0 2 = 9 u l e 2 a I B M I I B Z e 9 l M M M T V ' I y ( C.&.@ O $ 5 w w w l G ' G v r w w w 9 "
};
